<svg width="127" height="36" viewBox="0 0 127 36" fill="none" xmlns="http://www.w3.org/2000/svg">
<g clip-path="url(#clip0_735_37136)">
<path d="M31.2427 19.5977C31.2427 19.6123 31.2427 19.6256 31.2427 19.6402C30.8226 22.6463 29.4418 25.4291 27.3125 27.5608C25.1832 29.6925 22.4233 31.0551 19.457 31.4391V35.2195C23.4078 34.8185 27.1035 33.0534 29.9269 30.219C32.7502 27.3845 34.5303 23.6522 34.9698 19.6456C34.9705 19.6314 34.9705 19.6172 34.9698 19.603L31.2427 19.5977Z" fill="#78716C"/>
<path d="M4.26486 19.6387H0.535156C0.968203 23.5853 2.70166 27.2677 5.45439 30.0885C8.20712 32.9094 11.8177 34.7033 15.7005 35.1793V31.3883C12.8048 30.9353 10.1296 29.5483 8.07026 27.4324C6.01089 25.3165 4.67668 22.5839 4.26486 19.6387Z" fill="#78716C"/>
<path d="M0.53125 15.8317H4.26096C4.66589 12.8796 5.9976 10.1388 8.05838 8.01617C10.1192 5.89353 12.7992 4.50222 15.7005 4.04879V0.257812C11.812 0.734448 8.19675 2.5328 5.44263 5.36039C2.6885 8.18799 0.957538 11.8785 0.53125 15.8317Z" fill="#78716C"/>
<path d="M34.9704 15.8312C34.5381 11.8169 32.7605 8.07529 29.9352 5.23304C27.11 2.39079 23.4086 0.620531 19.4512 0.21875V3.99909C22.423 4.38379 25.1875 5.7508 27.3182 7.88918C29.4489 10.0276 30.8273 12.8185 31.2407 15.8312C31.2407 15.8312 31.2407 15.8312 31.2407 15.8392H34.9704C34.971 15.8366 34.971 15.8339 34.9704 15.8312Z" fill="#78716C"/>
<path d="M19.4532 24.1302C18.2102 24.4704 16.896 24.4306 15.6751 24.0158C14.4543 23.6011 13.381 22.8298 12.5899 21.7986C11.7988 20.7674 11.3249 19.5221 11.2277 18.2187C11.1304 16.9153 11.4141 15.6117 12.0431 14.4712C12.6722 13.3308 13.6187 12.4041 14.7641 11.8073C15.9095 11.2105 17.2028 10.9702 18.4821 11.1163C19.7614 11.2624 20.9698 11.7886 21.956 12.6289C22.9421 13.4691 23.6621 14.5862 24.0259 15.84H27.8277C27.366 13.2882 25.9814 11.0038 23.9458 9.43534C21.9102 7.86692 19.3707 7.12784 16.8259 7.36321C14.2811 7.59858 11.9149 8.79139 10.1919 10.7074C8.46894 12.6235 7.51367 15.1243 7.51367 17.7189C7.51367 20.3135 8.46894 22.8143 10.1919 24.7304C11.9149 26.6464 14.2811 27.8392 16.8259 28.0746C19.3707 28.31 21.9102 27.5709 23.9458 26.0025C25.9814 24.434 27.366 22.1496 27.8277 19.5977H24.0259C23.7071 20.6862 23.1197 21.6739 22.3194 22.4671C21.5192 23.2603 20.5326 23.8328 19.4532 24.1302Z" fill="#78716C"/>
<path d="M20.6507 17.7196C20.6518 18.4134 20.4118 19.0854 19.9729 19.6171C19.5341 20.1489 18.9246 20.5065 18.2516 20.6268C17.5787 20.7471 16.8856 20.6226 16.2942 20.275C15.7028 19.9275 15.2512 19.3792 15.0188 18.7268C14.7864 18.0744 14.7881 17.3596 15.0236 16.7084C15.2592 16.0571 15.7135 15.5112 16.3065 15.1666C16.8996 14.822 17.5933 14.7009 18.2657 14.8246C18.938 14.9483 19.5458 15.3088 19.9821 15.8428C20.4145 16.3696 20.6511 17.0338 20.6507 17.7196Z" fill="#78716C"/>
<path d="M53.9777 27.235C51.7061 27.1387 49.5602 26.15 47.993 24.4774C46.4258 22.8049 45.56 20.5795 45.5784 18.2711C45.5968 15.9626 46.4979 13.7517 48.0915 12.1051C49.6851 10.4585 51.8464 9.50514 54.1193 9.44615C55.4412 9.42744 56.7492 9.72253 57.9389 10.3079C59.1286 10.8933 60.1671 11.7528 60.9718 12.8178L58.4993 15.1845C58.0493 14.4701 57.427 13.8843 56.6914 13.4827C55.9558 13.0811 55.1314 12.877 54.2963 12.8897C52.933 12.9582 51.6472 13.554 50.7029 14.5548C49.7586 15.5556 49.2274 16.8854 49.2183 18.2713C49.2093 19.6572 49.723 20.9941 50.6542 22.0075C51.5853 23.0209 52.8632 23.634 54.2255 23.7209C55.2167 23.7153 56.1862 23.4264 57.0232 22.8873C57.8602 22.3482 58.5308 21.5807 58.9581 20.6727L61.643 22.5735C60.9065 23.9872 59.8026 25.1691 58.4513 25.9908C57.1 26.8126 55.5529 27.2429 53.9777 27.235Z" fill="#78716C"/>
<path d="M70.015 27.2319C67.2948 27.2319 64.8223 25.6173 64.8223 21.5654V3.27344H68.4982V21.3857C68.4982 23.2865 69.4159 23.9681 70.6181 23.9681C71.1112 23.9558 71.5987 23.859 72.0601 23.6819L73.261 26.4772C72.248 26.9715 71.1389 27.2294 70.015 27.2319Z" fill="#78716C"/>
<path d="M91.844 18.3354C91.844 20.0946 91.3303 21.8142 90.3677 23.2769C89.4052 24.7396 88.037 25.8796 86.4364 26.5528C84.8357 27.226 83.0744 27.4021 81.3751 27.0589C79.6759 26.7157 78.115 25.8686 76.8899 24.6247C75.6648 23.3808 74.8305 21.796 74.4925 20.0706C74.1545 18.3453 74.328 16.5569 74.991 14.9317C75.6541 13.3064 76.7768 11.9173 78.2174 10.94C79.6579 9.96263 81.3516 9.44099 83.0841 9.44099C84.2434 9.40754 85.3973 9.61475 86.475 10.0499C87.5527 10.485 88.5315 11.139 89.3516 11.9717C90.1717 12.8043 90.8158 13.7982 91.2443 14.8925C91.6729 15.9867 91.877 17.1583 91.844 18.3354ZM77.9622 18.2995C78.003 19.319 78.3381 20.3038 78.9258 21.1315C79.5135 21.9592 80.3278 22.5932 81.2675 22.9548C82.2072 23.3163 83.2309 23.3894 84.2112 23.165C85.1915 22.9406 86.0852 22.4285 86.7812 21.6925C87.4772 20.9566 87.9448 20.0291 88.1259 19.0254C88.3069 18.0218 88.1933 16.9862 87.7994 16.0475C87.4055 15.1089 86.7485 14.3085 85.9101 13.7459C85.0718 13.1833 84.089 12.8833 83.0841 12.8832C82.3906 12.8734 81.7026 13.0085 81.0628 13.28C80.4229 13.5516 79.8448 13.9538 79.3645 14.4618C78.8841 14.9697 78.5118 15.5725 78.2706 16.2326C78.0293 16.8928 77.9244 17.5964 77.9622 18.2995Z" fill="#78716C"/>
<path d="M110.175 26.8726H106.573V24.6098C106.036 25.4377 105.3 26.1129 104.435 26.5711C103.57 27.0293 102.603 27.2555 101.628 27.228C100.772 27.2555 99.92 27.099 99.1278 26.7691C98.3357 26.4391 97.6211 25.9429 97.0309 25.3131C96.4407 24.6833 95.9881 23.934 95.7029 23.1144C95.4176 22.2947 95.306 21.423 95.3755 20.5565V9.86914H99.0462V19.6314C99.0462 22.2138 100.424 23.5409 102.332 23.5409C104.451 23.5409 106.5 21.8557 106.5 18.5559V9.87712H110.171L110.175 26.8726Z" fill="#78716C"/>
<path d="M122.47 27.2316C121.728 27.2782 120.986 27.163 120.292 26.8937C119.598 26.6243 118.969 26.2071 118.447 25.6702C117.926 25.1333 117.523 24.489 117.267 23.7809C117.011 23.0728 116.908 22.3172 116.964 21.5651V13.3123H113.361V9.86868H116.964V5.5293H120.635V9.86868H124.979V13.3123H120.635V21.3814C120.585 21.7135 120.61 22.0526 120.706 22.3739C120.803 22.6952 120.969 22.9905 121.192 23.2381C121.416 23.4857 121.691 23.6794 121.998 23.805C122.305 23.9305 122.635 23.9848 122.965 23.9637C123.75 23.9396 124.516 23.7177 125.194 23.3181L126.537 26.0802C125.307 26.8261 123.902 27.2237 122.47 27.2316Z" fill="#78716C"/>
</g>
<defs>
<clipPath id="clip0_735_37136">
<rect width="126" height="35" fill="white" transform="translate(0.53125 0.21875)"/>
</clipPath>
</defs>
</svg>
