<svg width="125" height="31" viewBox="0 0 125 31" fill="none" xmlns="http://www.w3.org/2000/svg">
<g clip-path="url(#clip0_735_37160)">
<g clip-path="url(#clip1_735_37160)">
<path d="M83.6322 12.4458V7.19875C83.6577 6.75593 83.5694 6.31396 83.3758 5.91488C83.1822 5.51581 82.8898 5.17289 82.5263 4.91875C81.8608 4.47956 81.0796 4.24841 80.2822 4.25475C79.5451 4.22033 78.8139 4.40256 78.1791 4.77896C77.5444 5.15535 77.0337 5.70942 76.7103 6.37275L77.9102 6.97275C78.0949 6.50428 78.4247 6.10725 78.8514 5.83984C79.2781 5.57243 79.7791 5.44869 80.2812 5.48675C81.5452 5.48675 82.2093 6.05575 82.2093 7.19375V7.54175C82.2093 7.54175 82.2093 7.63675 82.1462 7.63675C82.0832 7.69975 81.9883 7.76275 81.6403 7.79475C80.2922 7.84383 78.9732 8.20059 77.7842 8.83775C77.319 9.10916 76.9319 9.49627 76.6605 9.96148C76.3891 10.4267 76.2426 10.9542 76.2353 11.4928C76.2733 12.2683 76.6005 13.0015 77.1523 13.5478C77.6875 14.0125 78.3714 14.2704 79.0803 14.2747C79.6784 14.3417 80.2835 14.2481 80.8334 14.0036C81.3834 13.7592 81.8582 13.3726 82.2093 12.8837C82.1948 13.0975 82.2441 13.3107 82.3509 13.4963C82.4577 13.682 82.6172 13.8318 82.8092 13.9268C83.2326 14.0871 83.6913 14.1307 84.1373 14.0527V13.0468C84.0633 13.0442 83.9906 13.0262 83.9241 12.9938C83.8575 12.9614 83.7985 12.9154 83.7509 12.8587C83.7033 12.802 83.6681 12.736 83.6477 12.6649C83.6272 12.5937 83.622 12.5191 83.6322 12.4458ZM82.2732 11.3077C82.1782 12.1297 80.6292 13.2078 79.3652 13.0778C78.974 13.0686 78.6013 12.9091 78.3246 12.6324C78.0479 12.3557 77.8884 11.983 77.8792 11.5918C77.7842 9.97975 78.9222 9.31575 81.5462 9.03175C81.7955 9.0184 82.0409 8.96505 82.2732 8.87375V11.3077ZM21.0732 12.7937C21.8353 11.7747 22.2256 10.5254 22.1793 9.25375C22.2256 7.98208 21.8353 6.73284 21.0732 5.71375C20.7202 5.24737 20.2609 4.87204 19.7335 4.61896C19.2061 4.36589 18.626 4.2424 18.0413 4.25875C17.4512 4.23829 16.8648 4.35965 16.3313 4.61264C15.7978 4.86564 15.3328 5.24289 14.9753 5.71275C14.2132 6.73184 13.8229 7.98108 13.8693 9.25275C13.8229 10.5244 14.2132 11.7737 14.9753 12.7928C15.3351 13.26 15.8006 13.6354 16.3335 13.8881C16.8665 14.1409 17.4517 14.2638 18.0413 14.2467C18.6263 14.2637 19.2069 14.1407 19.7348 13.888C20.2627 13.6353 20.7226 13.2601 21.0763 12.7937H21.0732ZM15.4782 9.25375C15.4782 6.88275 16.3952 5.42875 18.0702 5.42875C19.6502 5.42875 20.5993 6.88275 20.5993 9.25375C20.5993 11.6248 19.6822 13.0787 18.0702 13.0787C16.4292 13.0777 15.4812 11.6237 15.4812 9.25375H15.4782ZM33.2783 14.2168C33.7438 14.2015 34.1997 14.0796 34.6108 13.8605C35.0218 13.6414 35.3771 13.3308 35.6493 12.9528H35.7122V14.7858C35.7023 15.0688 35.636 15.3471 35.5174 15.6043C35.3987 15.8615 35.23 16.0925 35.0211 16.2838C34.8122 16.4751 34.5673 16.6228 34.3007 16.7185C34.0341 16.8141 33.7511 16.8557 33.4683 16.8407C32.4463 16.8566 31.4329 16.652 30.4972 16.2408V17.5688C31.3912 17.8794 32.333 18.0294 33.2793 18.0117C35.9033 18.0117 37.1673 16.5577 37.1673 14.4117V4.48075H36.0563L35.7402 5.49275C35.4723 5.0984 35.1088 4.77838 34.6837 4.56259C34.2586 4.34679 33.7857 4.24226 33.3092 4.25875C31.6022 4.25875 29.2633 5.42875 29.2633 9.25275C29.2633 13.0188 31.6342 14.2188 33.2772 14.2188L33.2783 14.2168ZM33.4362 5.49275C33.8806 5.49042 34.3185 5.59893 34.7103 5.80846C35.1021 6.01799 35.4355 6.32192 35.6802 6.69275V11.2758C35.5142 11.7542 35.2146 12.1751 34.817 12.4888C34.4193 12.8024 33.9402 12.9957 33.4362 13.0457C31.8872 13.0457 30.8123 12.0338 30.8123 9.15775C30.8123 6.75575 31.7922 5.49175 33.4352 5.49175L33.4362 5.49275ZM97.5362 12.2257V0.71875H95.9912V12.7308C95.9866 12.9674 96.046 13.2009 96.163 13.4067C96.28 13.6124 96.4505 13.7828 96.6562 13.8997C97.1267 14.1666 97.6658 14.2878 98.2053 14.2478C98.5335 14.2359 98.8608 14.2042 99.1852 14.1528V13.1097H98.6482C97.6352 13.0778 97.5403 12.6357 97.5403 12.2247L97.5362 12.2257ZM2.20525 2.20475L5.77725 14.1187H6.91525L10.4873 2.20475V14.1187H11.9733V1.06675H9.50725L6.37725 11.5297L6.31425 11.5927V11.5297L3.18525 1.06675H0.65625V14.1187H2.20525V2.20475ZM104.178 4.25875C103.591 4.25144 103.009 4.37011 102.471 4.60675C101.947 4.82002 101.489 5.16936 101.144 5.61875C100.404 6.6936 100.037 7.9821 100.101 9.28575C100.06 9.99141 100.159 10.6982 100.392 11.3655C100.626 12.0327 100.989 12.6473 101.46 13.1737C101.843 13.5525 102.297 13.8511 102.796 14.052C103.296 14.2529 103.83 14.3521 104.368 14.3438C105.142 14.4058 105.916 14.2182 106.576 13.8087C107.236 13.3991 107.747 12.789 108.035 12.0677L106.835 11.4677C106.65 11.969 106.313 12.3998 105.87 12.7001C105.428 13.0004 104.904 13.1551 104.369 13.1427C103.975 13.1519 103.585 13.0645 103.232 12.8881C102.879 12.7117 102.575 12.4517 102.346 12.1307C101.813 11.3883 101.556 10.4828 101.619 9.57075H108.162V8.61875C108.211 7.98788 108.13 7.35364 107.924 6.75547C107.717 6.15731 107.39 5.60801 106.962 5.14175C106.182 4.50006 105.185 4.18379 104.178 4.25875ZM101.713 8.36875C101.808 6.37775 102.598 5.49275 104.179 5.49275C105.949 5.49275 106.708 6.37775 106.708 8.36875H101.713ZM25.5333 8.61875C25.8493 6.62775 26.8923 5.67875 28.6623 5.67875V4.29075C27.9992 4.26014 27.3428 4.43494 26.7828 4.79128C26.2228 5.14763 25.7864 5.66814 25.5333 6.28175H25.4702L25.5333 6.15575V4.44875H23.9842V14.0898H25.5333V8.61875ZM68.0482 7.85975C67.1784 7.3013 66.2304 6.87531 65.2353 6.59575C63.5913 6.05875 62.0423 5.55275 62.1063 4.16175C62.0888 3.88496 62.1337 3.60778 62.2375 3.35061C62.3413 3.09345 62.5015 2.86284 62.7062 2.67575C63.2049 2.27244 63.836 2.06956 64.4762 2.10675C65.1914 2.12396 65.8849 2.35526 66.4672 2.77075C66.9789 3.18222 67.3446 3.74741 67.5102 4.38275L68.8692 4.22475C68.677 3.49188 68.304 2.81889 67.7846 2.26732C67.2651 1.71575 66.6156 1.30319 65.8956 1.06735C65.1756 0.831516 64.4079 0.779929 63.6628 0.917306C62.9177 1.05468 62.2188 1.37664 61.6302 1.85375C61.2813 2.15572 61.0018 2.52959 60.8109 2.94971C60.62 3.36984 60.5222 3.82629 60.5243 4.28775C60.5178 4.76625 60.6298 5.23892 60.8503 5.66362C61.0709 6.08831 61.3931 6.45183 61.7882 6.72175C62.6247 7.29936 63.5552 7.72707 64.5382 7.98575C66.1823 8.58575 67.7943 9.15575 67.7943 10.7037C67.8088 11.0095 67.757 11.3147 67.6424 11.5985C67.5277 11.8823 67.353 12.1379 67.1302 12.3477C66.5431 12.8234 65.7983 13.0605 65.0443 13.0118C64.265 12.9965 63.5115 12.7298 62.8963 12.2513C62.281 11.7728 61.8369 11.1083 61.6302 10.3567L60.2082 10.7358C60.5737 11.641 61.1101 12.4674 61.7882 13.1698C62.6743 13.9291 63.8153 14.3243 64.9812 14.2758C65.6077 14.3311 66.2388 14.2528 66.8327 14.0459C67.4266 13.839 67.9698 13.5083 68.4262 13.0758C69.0534 12.3358 69.3808 11.388 69.3443 10.4187C69.3519 9.91951 69.2379 9.42592 69.0121 8.9806C68.7863 8.53528 68.4555 8.15162 68.0482 7.86275V7.85975ZM73.2643 1.25575H71.7152V4.41875H70.2933V5.61875H71.7152V12.7308C71.7063 12.9609 71.7568 13.1895 71.8619 13.3944C71.967 13.5993 72.1231 13.7737 72.3152 13.9008C72.7888 14.1596 73.3255 14.2802 73.8643 14.2487C74.1928 14.241 74.5203 14.2093 74.8443 14.1538V13.1097H74.3382C73.3582 13.1097 73.2322 12.6667 73.2322 12.2878V5.64975H74.8122V4.44875H73.2322V1.25575H73.2643ZM53.2562 4.25875C52.7131 4.2923 52.1835 4.44238 51.7034 4.69879C51.2234 4.9552 50.8042 5.31193 50.4743 5.74475V4.48075H48.9243V14.1187H50.4733V6.97775C51.1378 6.17941 52.0708 5.65102 53.0973 5.49175C54.1403 5.49175 54.6463 5.99775 54.6463 7.13575V14.1187H56.1323V7.07275C56.1532 6.69238 56.0926 6.31193 55.9546 5.95686C55.8166 5.60179 55.6044 5.28029 55.3321 5.01387C55.0598 4.74746 54.7337 4.54227 54.3757 4.41204C54.0177 4.28181 53.6361 4.22955 53.2562 4.25875ZM115.433 4.41675L113.22 11.8448V12.0028L113.157 11.8448L110.627 4.41875H109.141L112.523 13.9967V14.0597C112.347 14.9904 111.883 15.842 111.195 16.4937C110.794 16.7282 110.331 16.8382 109.867 16.8097C109.623 16.7916 109.381 16.7599 109.14 16.7148V17.8848C109.458 17.9809 109.788 18.0341 110.12 18.0427C110.76 18.0478 111.387 17.8608 111.92 17.5058C112.662 16.7931 113.207 15.9 113.5 14.9137L116.856 4.44875H115.434L115.433 4.41675ZM90.5563 4.25875C90.0047 4.29457 89.4667 4.44527 88.9767 4.70117C88.4868 4.95707 88.0558 5.31252 87.7113 5.74475L87.7742 4.48075H86.2243V14.1187H87.7732V6.97775C88.4375 6.17962 89.3702 5.65126 90.3962 5.49175C91.4392 5.49175 91.9453 5.99775 91.9453 7.13575V14.1187H93.4313V7.07275C93.4472 6.69373 93.3832 6.31561 93.2435 5.96291C93.1038 5.61022 92.8915 5.29083 92.6204 5.02548C92.3493 4.76013 92.0255 4.55475 91.6699 4.42266C91.3142 4.29057 90.9348 4.23472 90.5563 4.25875ZM44.8783 7.64175C44.8783 7.70475 44.7202 7.76775 44.3722 7.79975C43.0425 7.83763 41.7414 8.19539 40.5793 8.84275C40.105 9.10378 39.7105 9.48857 39.4377 9.95613C39.165 10.4237 39.0241 10.9565 39.0303 11.4978C39.0427 12.2727 39.3608 13.0113 39.9152 13.5527C40.4505 14.0175 41.1344 14.2754 41.8433 14.2797C42.4413 14.3467 43.0465 14.2531 43.5964 14.0086C44.1464 13.7642 44.6213 13.3776 44.9723 12.8888C44.9697 13.1083 45.0312 13.3238 45.1491 13.509C45.267 13.6942 45.4363 13.8411 45.6362 13.9318C46.0368 14.0939 46.4755 14.1376 46.9002 14.0577V13.0468C46.5522 12.9838 46.3312 12.8257 46.3312 12.4467V7.19875C46.3568 6.75602 46.2687 6.31411 46.0753 5.91504C45.8819 5.51597 45.5896 5.17301 45.2262 4.91875C44.5608 4.47956 43.7796 4.24841 42.9823 4.25475C42.2451 4.22033 41.5139 4.40256 40.8791 4.77896C40.2444 5.15535 39.7337 5.70942 39.4103 6.37275L40.6102 6.97275C40.7949 6.50428 41.1247 6.10725 41.5514 5.83984C41.978 5.57243 42.4791 5.44869 42.9813 5.48675C44.2453 5.48675 44.9092 6.05575 44.9092 7.19375V7.54175C44.9102 7.51875 44.9103 7.64175 44.8783 7.64175ZM44.9733 8.84175V11.2758C44.8783 12.0977 43.3293 13.1757 42.0653 13.0457C41.674 13.0366 41.3013 12.8771 41.0246 12.6004C40.7479 12.3237 40.5884 11.951 40.5793 11.5597C40.4842 9.94775 41.6852 9.28375 44.2463 8.99975C44.4988 9.02102 44.752 8.96634 44.9733 8.84275V8.84175ZM3.59625 20.6957L0.65625 27.4928H2.45625L2.93025 26.3547H6.03025L6.50425 27.4928H8.33725L5.39725 20.6928H3.59625V20.6957ZM3.47025 24.9317L4.45025 22.5317L5.43025 24.9317H3.47025ZM42.0703 22.8458C42.0703 21.5178 41.1533 20.7278 39.5703 20.7278H35.6172V27.5278H37.3242V25.0588H38.6833L40.2002 27.4587H42.1003L40.4562 24.9317C40.9357 24.8461 41.366 24.585 41.6635 24.1994C41.9609 23.8138 42.1041 23.3312 42.0653 22.8458H42.0703ZM39.4782 23.5457H37.3563V22.2138H39.4743C40.0112 22.2138 40.3592 22.3717 40.3592 22.8778C40.3563 23.3518 40.0423 23.5408 39.4733 23.5408L39.4782 23.5457ZM49.5563 20.6957H47.4393L45.0052 23.2248V20.6957H43.2982V27.4608H45.0052V25.3748L45.6053 24.7747L47.7562 27.4928H49.7463L46.7463 23.6367L49.5563 20.6957ZM30.9382 20.6007C30.4626 20.5653 29.9848 20.6308 29.5361 20.7929C29.0875 20.9549 28.6782 21.21 28.335 21.5413C27.9918 21.8726 27.7225 22.2726 27.5447 22.7153C27.3669 23.1579 27.2846 23.6331 27.3032 24.1098C27.2868 24.5858 27.3706 25.06 27.5492 25.5016C27.7277 25.9432 27.9971 26.3424 28.3398 26.6732C28.6825 27.004 29.091 27.2592 29.5386 27.4221C29.9862 27.5849 30.4631 27.652 30.9382 27.6187C31.4114 27.6505 31.886 27.5822 32.3311 27.4183C32.7761 27.2544 33.1817 26.9986 33.5213 26.6676C33.8609 26.3365 34.127 25.9377 34.3022 25.497C34.4774 25.0563 34.5578 24.5836 34.5382 24.1098C34.5603 23.6353 34.4815 23.1616 34.3071 22.7198C34.1327 22.2781 33.8666 21.8783 33.5265 21.5468C33.1863 21.2154 32.7798 20.9598 32.3337 20.7969C31.8875 20.634 31.412 20.5675 30.9382 20.6017V20.6007ZM30.9382 26.1007C30.6815 26.1091 30.4261 26.0619 30.1892 25.9626C29.9524 25.8632 29.7397 25.714 29.5658 25.525C29.3918 25.3361 29.2606 25.1119 29.1812 24.8676C29.1017 24.6234 29.0758 24.3649 29.1052 24.1098C29.0839 23.856 29.1154 23.6006 29.1978 23.3596C29.2802 23.1187 29.4118 22.8975 29.5841 22.71C29.7565 22.5225 29.9659 22.3728 30.199 22.2705C30.4322 22.1681 30.6841 22.1152 30.9387 22.1152C31.1934 22.1152 31.4453 22.1681 31.6785 22.2705C31.9116 22.3728 32.121 22.5225 32.2934 22.71C32.4657 22.8975 32.5973 23.1187 32.6797 23.3596C32.7621 23.6006 32.7936 23.856 32.7723 24.1098C32.8047 24.3656 32.7808 24.6254 32.7024 24.871C32.624 25.1167 32.4929 25.3423 32.3182 25.532C32.1435 25.7217 31.9295 25.871 31.6912 25.9694C31.4528 26.0678 31.1959 26.113 30.9382 26.1017V26.1007ZM24.1103 24.9307L22.6882 20.6947H21.1392L19.7173 24.9307L18.4172 20.7577V20.7257H16.5872L18.8312 27.4907H20.3803L21.8662 23.1597L23.3563 27.4928H24.9963L27.2092 20.6928H25.4702L24.1103 24.9307ZM7.35625 22.1817H9.88625V27.4918H11.5933V22.1817H14.1222V20.6957H7.35625V22.1817Z" fill="#78716C"/>
</g>
</g>
<defs>
<clipPath id="clip0_735_37160">
<rect width="124" height="30" fill="white" transform="translate(0.65625 0.71875)"/>
</clipPath>
<clipPath id="clip1_735_37160">
<rect width="116.198" height="26.9" fill="white" transform="translate(0.65625 0.71875)"/>
</clipPath>
</defs>
</svg>
