<svg width="125" height="22" viewBox="0 0 125 22" fill="none" xmlns="http://www.w3.org/2000/svg">
<g clip-path="url(#clip0_1079_28744)">
<path d="M17.6771 9.63137V16.8396H13.8038V10.0863C13.8038 8.97819 13.3211 8.44165 12.3671 8.44165C11.3212 8.44165 10.7695 9.1998 10.7695 10.4245V16.8513H6.90764V10.0863C6.90764 8.97819 6.42491 8.44165 5.44796 8.44165C4.40204 8.44165 3.85036 9.1998 3.85036 10.4245V16.8513H0V5.07079H3.85036V6.17886C4.57445 5.21075 5.60887 4.74419 6.9881 4.74419C8.30986 4.74419 9.30981 5.23408 9.95344 6.24885C10.7695 5.23408 11.8844 4.74419 13.3211 4.74419C16.0106 4.73253 17.6771 6.59875 17.6771 9.63137Z" fill="#013281"/>
<path d="M26.9986 5.07079H30.8489V16.8396H26.9986V15.7549C26.2056 16.6997 25.1137 17.1662 23.7 17.1662C22.1484 17.1662 20.8496 16.583 19.8037 15.405C18.7577 14.2036 18.252 12.7223 18.252 10.961C18.252 9.19979 18.7577 7.70683 19.8037 6.54043C20.8496 5.33906 22.1484 4.75586 23.7 4.75586C25.1137 4.75586 26.2056 5.22242 26.9986 6.16719V5.07079ZM24.562 13.5155C25.2861 13.5155 25.8837 13.2821 26.3205 12.8039C26.7573 12.3374 26.9986 11.7192 26.9986 10.9494C26.9986 10.1679 26.7688 9.56137 26.3205 9.09483C25.8837 8.62827 25.2746 8.38333 24.562 8.38333C23.8494 8.38333 23.2402 8.61661 22.8034 9.09483C22.3668 9.56137 22.1253 10.1796 22.1253 10.9494C22.1253 11.7309 22.3552 12.3374 22.8034 12.8039C23.2402 13.2821 23.8494 13.5155 24.562 13.5155Z" fill="#013281"/>
<path d="M40.2052 5.07079H44.0096V16.3731C44.0096 20.2805 40.9522 21.9017 37.9065 21.9017C35.3318 21.9017 33.217 20.9103 32.1941 19.0325L35.4009 17.1545C35.9525 18.0527 36.7686 18.496 37.8605 18.496C39.2512 18.496 40.2052 17.7611 40.2052 16.3731V15.2417C39.4121 16.2098 38.3202 16.6997 36.9525 16.6997C35.3549 16.6997 34.0332 16.1165 32.9872 14.9618C31.9413 13.8071 31.4355 12.3957 31.4355 10.7278C31.4355 9.05983 31.9413 7.6485 32.9872 6.49378C34.0332 5.33906 35.3549 4.75586 36.9525 4.75586C38.3202 4.75586 39.4121 5.24574 40.2052 6.21385V5.07079ZM37.7456 13.1655C38.4697 13.1655 39.0673 12.9322 39.5041 12.4773C39.9638 12.0108 40.2052 11.4159 40.2052 10.7161C40.2052 10.0046 39.9753 9.42141 39.5041 8.97819C39.0673 8.51163 38.4581 8.26669 37.7456 8.26669C37.0214 8.26669 36.4238 8.49997 35.9641 8.97819C35.5273 9.42141 35.286 10.0163 35.286 10.7161C35.286 11.4276 35.5158 12.0108 35.9641 12.4773C36.4238 12.9322 37.0214 13.1655 37.7456 13.1655Z" fill="#013281"/>
<path d="M56.0844 10.0329V17.0779H52.234V10.5345C52.234 9.30977 51.5329 8.67992 50.4985 8.67992C49.2917 8.67992 48.5906 9.43808 48.5906 10.8261V17.0896H44.7402V5.30906H48.5906V6.48712C49.2917 5.47236 50.3491 4.98248 51.8203 4.98248C54.3144 4.97082 56.0844 6.76705 56.0844 10.0329Z" fill="#013281"/>
<path d="M73.4211 5.07189V16.8407H69.5708V8.81599H66.9272V16.8407H63.0769V8.81599H61.6172V5.07189H63.0769C63.0769 1.70102 65.0308 0.00976562 68.9271 0.00976562C69.95 0.00976562 70.95 0.126404 71.9384 0.359681V3.7772C70.9385 3.63724 69.9845 3.56725 69.088 3.56725C67.6743 3.56725 66.9272 3.94049 66.9272 5.07189H73.4211Z" fill="#013281"/>
<path d="M60.8016 5.07031H56.9512V16.8392H60.8016V5.07031Z" fill="#013281"/>
<path d="M57.5134 3.33295C56.7664 2.53981 56.7664 1.32677 57.5134 0.568614C58.295 -0.189538 59.4904 -0.189538 60.2374 0.568614C61.0189 1.32677 61.0189 2.53981 60.2374 3.33295C59.4904 4.0911 58.3065 4.0911 57.5134 3.33295Z" fill="#013281"/>
<path d="M75.9434 16.3005H119.711C122.632 16.3005 125 13.8692 125 10.87V10.5985C125 7.59929 122.632 5.16797 119.711 5.16797H81.2325C78.3113 5.16797 75.9434 7.59929 75.9434 10.5985V16.3005Z" fill="#1E86FF"/>
<path d="M83.0781 13.5895V7.5204H85.5157C86.0404 7.5204 86.4889 7.6071 86.8614 7.78051C87.2394 7.95391 87.53 8.20246 87.7332 8.52613C87.9363 8.84983 88.0379 9.23422 88.0379 9.67928C88.0379 10.1243 87.9363 10.5087 87.7332 10.8324C87.53 11.1561 87.2394 11.4046 86.8614 11.5781C86.4889 11.7515 86.0404 11.8382 85.5157 11.8382H83.6875L84.1784 11.3093V13.5895H83.0781ZM84.1784 11.4307L83.6875 10.8844H85.4649C85.9501 10.8844 86.3141 10.7804 86.5567 10.5723C86.8049 10.3584 86.929 10.0608 86.929 9.67928C86.929 9.292 86.8049 8.99434 86.5567 8.78625C86.3141 8.57817 85.9501 8.47412 85.4649 8.47412H83.6875L84.1784 7.91923V11.4307ZM90.889 13.6502C90.3867 13.6502 89.9466 13.5491 89.5687 13.3467C89.1962 13.1387 88.9056 12.8555 88.6969 12.4971C88.4938 12.1387 88.3922 11.7312 88.3922 11.2746C88.3922 10.8122 88.491 10.4047 88.6885 10.0521C88.8916 9.69374 89.168 9.41338 89.5179 9.21109C89.8734 9.00878 90.2768 8.90763 90.7282 8.90763C91.1683 8.90763 91.5604 9.00589 91.9047 9.20242C92.2487 9.39895 92.5196 9.67639 92.7171 10.0348C92.9146 10.3931 93.0134 10.8151 93.0134 11.3006C93.0134 11.3468 93.0105 11.3989 93.005 11.4567C93.005 11.5145 93.0021 11.5694 92.9964 11.6214H89.2301V10.9018H92.4378L92.0232 11.1272C92.0287 10.8613 91.9752 10.6272 91.8624 10.4249C91.7494 10.2226 91.5943 10.0637 91.3968 9.94805C91.2049 9.83246 90.9822 9.77465 90.7282 9.77465C90.4687 9.77465 90.2401 9.83246 90.0427 9.94805C89.8508 10.0637 89.6984 10.2255 89.5856 10.4336C89.4784 10.6359 89.4248 10.8758 89.4248 11.1532V11.3266C89.4248 11.6041 89.4869 11.8497 89.611 12.0636C89.7351 12.2775 89.9101 12.4422 90.1357 12.5578C90.3614 12.6734 90.6209 12.7312 90.9144 12.7312C91.1683 12.7312 91.3968 12.6907 91.6 12.6098C91.8032 12.5289 91.9836 12.4017 92.1417 12.2283L92.7087 12.8959C92.5056 13.1387 92.2487 13.3266 91.9385 13.4595C91.6338 13.5866 91.2839 13.6502 90.889 13.6502ZM93.7756 13.5895V8.95965H94.7829V10.2342L94.6644 9.86135C94.7997 9.54923 95.0114 9.31224 95.2991 9.15039C95.5925 8.98854 95.9566 8.90763 96.3909 8.90763V9.93938C96.3458 9.92783 96.3035 9.92205 96.264 9.92205C96.2244 9.91626 96.185 9.91337 96.1455 9.91337C95.7449 9.91337 95.4261 10.0348 95.1891 10.2775C94.9521 10.5145 94.8336 10.87 94.8336 11.3439V13.5895H93.7756ZM98.4724 13.6502C98.0943 13.6502 97.7303 13.6011 97.3805 13.5029C97.0363 13.3988 96.7626 13.2745 96.5595 13.13L96.9659 12.3063C97.169 12.4393 97.4116 12.5491 97.6937 12.6358C97.9758 12.7225 98.2579 12.7659 98.54 12.7659C98.8729 12.7659 99.1128 12.7196 99.2595 12.6271C99.4118 12.5347 99.488 12.4104 99.488 12.2543C99.488 12.1272 99.4372 12.0318 99.3356 11.9682C99.2341 11.8988 99.1014 11.8468 98.9378 11.8121C98.7742 11.7775 98.5909 11.7457 98.3878 11.7168C98.1903 11.6879 97.99 11.6503 97.7868 11.6041C97.5893 11.552 97.4087 11.4798 97.2452 11.3873C97.0816 11.289 96.9489 11.159 96.8474 10.9971C96.7458 10.8353 96.695 10.6214 96.695 10.3556C96.695 10.0608 96.7768 9.80644 96.9404 9.59258C97.104 9.37294 97.3326 9.2053 97.626 9.0897C97.925 8.96832 98.2777 8.90763 98.6839 8.90763C98.9887 8.90763 99.2961 8.94231 99.6064 9.01167C99.9168 9.08104 100.174 9.1793 100.377 9.30646L99.9705 10.1301C99.756 9.99719 99.5388 9.90759 99.3187 9.86135C99.1044 9.80933 98.8898 9.78332 98.6755 9.78332C98.3539 9.78332 98.1141 9.83246 97.9561 9.93071C97.8037 10.029 97.7276 10.1532 97.7276 10.3035C97.7276 10.4423 97.7783 10.5463 97.8799 10.6157C97.9814 10.685 98.1141 10.7399 98.2777 10.7804C98.4413 10.8209 98.622 10.8555 98.8193 10.8844C99.0224 10.9076 99.2229 10.9451 99.4203 10.9971C99.6178 11.0492 99.7983 11.1214 99.9619 11.2139C100.131 11.3006 100.267 11.4249 100.368 11.5867C100.47 11.7486 100.521 11.9595 100.521 12.2196C100.521 12.5087 100.436 12.7601 100.267 12.974C100.103 13.1878 99.8689 13.3555 99.5641 13.4769C99.2595 13.5924 98.8955 13.6502 98.4724 13.6502ZM103.209 13.6502C102.746 13.6502 102.334 13.5491 101.973 13.3467C101.612 13.1387 101.327 12.8555 101.119 12.4971C100.91 12.1387 100.805 11.7312 100.805 11.2746C100.805 10.8122 100.91 10.4047 101.119 10.0521C101.327 9.69374 101.612 9.41338 101.973 9.21109C102.334 9.00878 102.746 8.90763 103.209 8.90763C103.677 8.90763 104.092 9.00878 104.453 9.21109C104.82 9.41338 105.105 9.69084 105.308 10.0434C105.517 10.396 105.621 10.8064 105.621 11.2746C105.621 11.7312 105.517 12.1387 105.308 12.4971C105.105 12.8555 104.82 13.1387 104.453 13.3467C104.092 13.5491 103.677 13.6502 103.209 13.6502ZM103.209 12.7225C103.469 12.7225 103.7 12.6647 103.903 12.5491C104.106 12.4335 104.264 12.2659 104.377 12.0462C104.496 11.8266 104.555 11.5694 104.555 11.2746C104.555 10.974 104.496 10.7168 104.377 10.5029C104.264 10.2833 104.106 10.1157 103.903 10.0001C103.7 9.88448 103.471 9.82667 103.218 9.82667C102.958 9.82667 102.727 9.88448 102.524 10.0001C102.326 10.1157 102.168 10.2833 102.05 10.5029C101.931 10.7168 101.872 10.974 101.872 11.2746C101.872 11.5694 101.931 11.8266 102.05 12.0462C102.168 12.2659 102.326 12.4335 102.524 12.5491C102.727 12.6647 102.955 12.7225 103.209 12.7225ZM108.943 8.90763C109.305 8.90763 109.626 8.97988 109.908 9.12439C110.196 9.26889 110.422 9.49142 110.585 9.79198C110.749 10.0868 110.831 10.4683 110.831 10.9365V13.5895H109.773V11.0752C109.773 10.6648 109.677 10.3584 109.485 10.1561C109.299 9.95384 109.036 9.85268 108.698 9.85268C108.45 9.85268 108.23 9.9047 108.038 10.0087C107.846 10.1128 107.696 10.2689 107.589 10.4769C107.488 10.6792 107.437 10.9365 107.437 11.2486V13.5895H106.379V8.95965H107.386V10.2082L107.208 9.82667C107.366 9.53188 107.595 9.30646 107.894 9.15039C108.199 8.98854 108.548 8.90763 108.943 8.90763ZM114.704 13.5895V12.6531L114.644 12.4537V10.8151C114.644 10.4972 114.551 10.2515 114.365 10.0781C114.179 9.89892 113.897 9.80933 113.519 9.80933C113.265 9.80933 113.014 9.84979 112.765 9.93071C112.523 10.0116 112.317 10.1243 112.148 10.2689L111.733 9.47986C111.975 9.28912 112.263 9.14752 112.596 9.05502C112.935 8.95676 113.284 8.90763 113.646 8.90763C114.3 8.90763 114.805 9.06948 115.161 9.39316C115.522 9.71107 115.702 10.2053 115.702 10.8758V13.5895H114.704ZM113.282 13.6502C112.943 13.6502 112.647 13.5924 112.393 13.4769C112.139 13.3555 111.942 13.1907 111.8 12.9826C111.665 12.7688 111.597 12.5289 111.597 12.263C111.597 12.0029 111.657 11.7688 111.775 11.5607C111.899 11.3526 112.1 11.1879 112.376 11.0665C112.653 10.9451 113.019 10.8844 113.476 10.8844H114.788V11.6041H113.553C113.191 11.6041 112.949 11.6648 112.825 11.7861C112.7 11.9017 112.638 12.0462 112.638 12.2196C112.638 12.4162 112.715 12.5722 112.867 12.6878C113.019 12.8034 113.231 12.8612 113.502 12.8612C113.761 12.8612 113.993 12.8005 114.196 12.6792C114.405 12.5578 114.554 12.3786 114.644 12.1416L114.822 12.7919C114.72 13.0635 114.537 13.2745 114.272 13.4248C114.012 13.5751 113.682 13.6502 113.282 13.6502ZM116.806 13.5895V7.15625H117.864V13.5895H116.806Z" fill="white"/>
</g>
<defs>
<clipPath id="clip0_1079_28744">
<rect width="125" height="22" fill="white"/>
</clipPath>
</defs>
</svg>
