<svg width="126" height="39" viewBox="0 0 126 39" fill="none" xmlns="http://www.w3.org/2000/svg">
<path d="M86.7764 16.603C86.6226 16.0647 86.3918 15.5648 86.0841 15.1419C85.8149 14.7189 85.4688 14.3345 85.0457 14.0269C84.6611 13.7193 84.1995 13.4886 83.6995 13.3348C83.1996 13.181 82.6226 13.1041 82.0457 13.1041C81.0073 13.1041 80.0842 13.3732 79.2765 13.9115C78.4688 14.4498 77.815 15.2188 77.315 16.2185C76.8535 17.2182 76.5843 18.487 76.5843 19.9481C76.5843 21.4092 76.815 22.678 77.315 23.6777C77.815 24.6774 78.4688 25.4848 79.2765 25.9846C80.1227 26.5229 81.0457 26.7921 82.1226 26.7921C83.1226 26.7921 83.9688 26.5998 84.6995 26.1769C85.4303 25.7924 86.0072 25.2157 86.4303 24.4851C86.8534 23.7546 87.0457 22.8702 87.0457 21.8706L87.738 21.9859H82.5457V19.7174H89.6995V21.7937C89.6995 23.3316 89.3918 24.6389 88.7379 25.7539C88.0841 26.869 87.1995 27.7533 86.0457 28.3685C84.8918 28.9837 83.5842 29.2913 82.1226 29.2913C80.4688 29.2913 79.0458 28.9068 77.7765 28.1378C76.5458 27.3688 75.5843 26.2922 74.892 24.9081C74.1997 23.5239 73.8535 21.8706 73.8535 19.9481C73.8535 18.487 74.0458 17.1797 74.4689 16.0262C74.8535 14.8727 75.4304 13.8731 76.1612 13.0656C76.8919 12.2582 77.7381 11.643 78.7381 11.22C79.7381 10.7971 80.815 10.5664 82.0073 10.5664C83.0072 10.5664 83.8919 10.7202 84.738 10.9893C85.5841 11.2585 86.3534 11.6814 87.0072 12.2197C87.661 12.758 88.2379 13.3732 88.661 14.1038C89.0841 14.8343 89.3918 15.6417 89.5456 16.5261H86.7764V16.603Z" fill="#78716C"/>
<path d="M95.161 13.2974C94.6995 13.2974 94.3149 13.1436 93.9688 12.836C93.6226 12.5284 93.4688 12.1439 93.4688 11.721C93.4688 11.298 93.6226 10.9135 93.9688 10.6059C94.3149 10.2983 94.6995 10.1445 95.161 10.1445C95.6226 10.1445 96.0072 10.2983 96.3533 10.6059C96.6995 10.9135 96.8533 11.298 96.8533 11.721C96.8533 12.1439 96.6995 12.5284 96.3533 12.836C96.0072 13.1436 95.6226 13.2974 95.161 13.2974ZM93.8149 29.0232V15.3737H96.4687V29.0232H93.8149Z" fill="#78716C"/>
<path d="M111.699 15.4121L106.738 29.0617H103.93L98.9688 15.4121H101.815L105.276 25.9088H105.43L108.892 15.4121H111.699Z" fill="#78716C"/>
<path d="M119.624 29.2932C118.277 29.2932 117.124 28.9856 116.162 28.4089C115.201 27.8321 114.431 27.0247 113.931 25.9866C113.393 24.9484 113.162 23.718 113.162 22.2954C113.162 20.9112 113.431 19.6808 113.931 18.6043C114.47 17.5277 115.201 16.7202 116.124 16.105C117.085 15.4899 118.162 15.2207 119.431 15.2207C120.2 15.2207 120.931 15.3361 121.662 15.6052C122.393 15.8743 123.047 16.2588 123.624 16.7971C124.2 17.3354 124.662 18.066 124.97 18.9119C125.316 19.7962 125.47 20.8343 125.47 22.0647V22.9875H114.624V20.9881H122.854C122.854 20.296 122.7 19.6808 122.431 19.1426C122.162 18.6043 121.739 18.1813 121.239 17.8737C120.739 17.5661 120.124 17.4123 119.431 17.4123C118.7 17.4123 118.047 17.6046 117.47 17.9506C116.931 18.2967 116.508 18.7965 116.201 19.3732C115.893 19.95 115.739 20.6036 115.739 21.2573V22.7952C115.739 23.718 115.893 24.487 116.239 25.1022C116.547 25.7559 117.008 26.2173 117.585 26.5633C118.162 26.9093 118.854 27.0631 119.624 27.0631C120.124 27.0631 120.585 26.9862 121.008 26.8324C121.431 26.6786 121.777 26.4864 122.085 26.1788C122.393 25.8712 122.624 25.5252 122.777 25.1022L125.277 25.5636C125.085 26.2942 124.7 26.9478 124.2 27.4861C123.7 28.0244 123.047 28.4858 122.239 28.7549C121.508 29.1394 120.624 29.2932 119.624 29.2932Z" fill="#78716C"/>
<path d="M0.46875 12.2964V10.7969H13.6993V12.2964H7.93019V29.0604H6.23791V12.2964H0.46875Z" fill="#78716C"/>
<path d="M20.353 10.7969V29.0219H18.6992V10.7969H20.353Z" fill="#78716C"/>
<path d="M26.4688 29.0213V10.7578H37.0071V12.2573H28.1226V19.1398H36.1994V20.6393H28.1226V29.0213H26.4688Z" fill="#78716C"/>
<path d="M44.0835 10.7969V29.0219H42.4297V10.7969H44.0835Z" fill="#78716C"/>
<path d="M64.3894 10.7969V29.0219H62.774L52.0049 13.7575H51.8511V29.0219H50.1973V10.7969H51.8126L62.6202 26.0998H62.774V10.7969H64.3894Z" fill="#78716C"/>
</svg>
