<svg width="96" height="53" viewBox="0 0 96 53" fill="none" xmlns="http://www.w3.org/2000/svg">
<path d="M0.658854 6.22887C0.658854 3.28335 3.04667 0.895538 5.99219 0.895538C8.93771 0.895538 11.3255 3.28335 11.3255 6.22887C11.3255 9.17439 8.93771 11.5622 5.99219 11.5622C3.04667 11.5622 0.658854 9.17439 0.658854 6.22887ZM64.9986 45.4121V46.4121H64.6968L64.4454 46.2452L64.9986 45.4121ZM95.3671 44.705C95.7576 45.0955 95.7576 45.7287 95.3671 46.1192L89.0031 52.4832C88.6126 52.8737 87.9794 52.8737 87.5889 52.4832C87.1984 52.0927 87.1984 51.4595 87.5889 51.069L93.2457 45.4121L87.5889 39.7553C87.1984 39.3647 87.1984 38.7316 87.5889 38.341C87.9794 37.9505 88.6126 37.9505 89.0031 38.341L95.3671 44.705ZM6.54538 5.39582L65.5518 44.5791L64.4454 46.2452L5.439 7.06193L6.54538 5.39582ZM64.9986 44.4121H94.6599V46.4121H64.9986V44.4121Z" fill="#4F4D4D"/>
</svg>
