<svg width="93" height="53" viewBox="0 0 93 53" fill="none" xmlns="http://www.w3.org/2000/svg">
<path d="M92.849 47.4118C92.849 50.3573 90.4611 52.7451 87.5156 52.7451C84.5701 52.7451 82.1823 50.3573 82.1823 47.4118C82.1823 44.4662 84.5701 42.0784 87.5156 42.0784C90.4611 42.0784 92.849 44.4662 92.849 47.4118ZM30.4446 8.22852V7.22852H30.7548L31.0106 7.40412L30.4446 8.22852ZM1.04897 8.93562C0.65844 8.5451 0.65844 7.91193 1.04897 7.52141L7.41293 1.15745C7.80344 0.766923 8.43661 0.766923 8.82713 1.15745C9.21766 1.54797 9.21766 2.18114 8.82713 2.57166L3.17028 8.22852L8.82713 13.8854C9.21766 14.2759 9.21766 14.9091 8.82713 15.2996C8.43661 15.6901 7.80344 15.6901 7.41293 15.2996L1.04897 8.93562ZM86.9496 48.2362L29.8786 9.05292L31.0106 7.40412L88.0816 46.5874L86.9496 48.2362ZM30.4446 9.22852H1.75607V7.22852H30.4446V9.22852Z" fill="#4F4D4D"/>
</svg>
