<svg width="126" height="38" viewBox="0 0 126 38" fill="none" xmlns="http://www.w3.org/2000/svg">
<path d="M16.1106 26.3263V8.93359H20.0722V26.3263H16.1106ZM93.1215 19.8282C93.1215 15.6249 89.8604 13.016 86.0437 13.016C82.2028 13.016 78.9658 15.6491 78.9658 19.8282C78.9658 24.0314 82.227 26.6645 86.0437 26.6645C89.8604 26.6645 93.1215 24.0073 93.1215 19.8282ZM89.2082 19.8282C89.2082 22.0264 87.7346 23.2584 86.0195 23.2584C84.3044 23.2584 82.8309 22.0264 82.8309 19.8282C82.8309 17.6058 84.3044 16.4221 86.0195 16.4221C87.7346 16.4221 89.2082 17.6058 89.2082 19.8282ZM14.5162 21.3259C14.5162 19.3692 13.5016 17.8715 11.6899 17.1951C13.405 16.253 14.0089 15.021 14.0089 13.5716C14.0089 11.0352 12.173 8.93359 8.06643 8.95775H0.191406V26.3504H8.40462C12.5354 26.3263 14.5162 24.273 14.5162 21.3259ZM9.8057 14.0789C9.8057 15.2626 9.05685 15.939 7.60746 15.939H4.32217V12.3155H7.60746C8.93607 12.3155 9.8057 12.8953 9.8057 14.0789ZM10.168 21.0602C10.168 22.1955 9.37088 22.9444 7.89734 22.9444H4.32217V19.176H7.89734C9.32257 19.176 10.168 19.9007 10.168 21.0602ZM49.0117 16.5671C47.9247 14.2963 45.8955 13.0402 42.8277 13.0402C39.2042 13.0402 35.9672 15.3109 35.9672 19.8282C35.9672 24.2247 38.8177 26.6645 42.7794 26.6645C45.5574 26.6645 47.9005 25.5533 49.0117 23.1618L45.8231 21.5191C45.2433 22.582 44.3495 23.2584 42.9243 23.2584C41.0884 23.2584 39.9047 21.954 39.9047 19.8282C39.9047 17.7024 41.2575 16.4221 42.9001 16.4221C44.1804 16.4221 45.1467 17.0019 45.7506 18.258L49.0117 16.5671ZM107.398 16.5671C106.311 14.2963 104.282 13.0402 101.214 13.0402C97.5905 13.0402 94.3535 15.3109 94.3535 19.8282C94.3535 24.2247 97.204 26.6645 101.166 26.6645C103.944 26.6645 106.287 25.5533 107.398 23.1618L104.209 21.5191C103.63 22.582 102.736 23.2584 101.311 23.2584C99.4747 23.2584 98.291 21.954 98.291 19.8282C98.291 17.7024 99.6438 16.4221 101.286 16.4221C102.567 16.4221 103.533 17.0019 104.137 18.258L107.398 16.5671ZM74.1828 26.3263L70.8734 20.4804H68.337V26.3263H64.2545V8.93359H71.6222C75.6081 8.93359 78.3861 10.842 78.3861 14.5862C78.3861 16.9777 77.2024 18.6687 75.1008 19.7074L78.9175 26.3263H74.1828ZM68.3611 17.026H71.4048C73.289 17.026 74.207 15.9631 74.207 14.707C74.207 13.2093 73.3373 12.388 71.4048 12.388H68.3611V17.026ZM35.315 26.1089V23.3792C35.1459 23.4275 34.9043 23.4758 34.6386 23.4758C34.1313 23.4758 33.8656 23.2101 33.8656 22.7511V18.2339C33.8656 14.8519 31.5949 13.0644 27.8506 13.0644C25.4108 13.0644 23.3334 13.9581 22.0289 15.1177L24.2271 17.5816C25.0968 16.8086 26.2563 16.3255 27.3916 16.3255C29.1309 16.3255 29.9522 17.1951 29.9522 18.6204V19.031C29.1309 18.8378 28.0922 18.6445 26.836 18.6445C23.6715 18.6445 21.6182 20.1664 21.6182 22.6787C21.6182 25.2634 23.3334 26.6162 25.9906 26.6162C27.8023 26.6162 29.4208 25.8673 30.2663 24.9011C30.7736 26.1813 31.8848 26.5195 32.9718 26.5195C33.7207 26.5437 34.5903 26.4229 35.315 26.1089ZM29.9764 22.0264C29.9764 23.2101 28.841 23.9831 27.5366 23.9831C26.3046 23.9831 25.7007 23.355 25.7007 22.4854C25.7007 21.5675 26.3771 20.8911 27.754 20.8911C28.5995 20.8911 29.3483 21.036 29.9764 21.1809V22.0264ZM121.554 26.3263L116.892 18.2339L121.264 13.475H116.867L112.254 18.5962V8.95775H108.316V26.3504H112.254V23.2101L114.138 21.2051L117.085 26.3504H121.554V26.3263ZM63.2158 26.3263L58.5536 18.2339L62.9259 13.475H58.4811L53.9155 18.5962V8.95775H49.978V26.3504H53.9155V23.2101L55.7997 21.2051L58.7468 26.3504H63.2158V26.3263ZM123.969 23.9106C124.791 23.9106 125.274 24.4179 125.274 25.1909C125.274 25.9639 124.791 26.4712 123.969 26.4712C123.148 26.4712 122.665 25.9639 122.665 25.1909C122.665 24.4179 123.148 23.9106 123.969 23.9106ZM123.969 26.3021C124.622 26.3021 125.056 25.9156 125.056 25.1909C125.056 24.4662 124.597 24.0797 123.969 24.0797C123.317 24.0797 122.882 24.4662 122.882 25.1909C122.858 25.9398 123.317 26.3021 123.969 26.3021ZM123.462 24.5387H123.994C124.308 24.5387 124.477 24.7078 124.477 24.9494C124.477 25.1668 124.38 25.2876 124.211 25.36L124.453 25.819H124.211L123.994 25.4083H123.704V25.819H123.462V24.5387ZM123.704 24.732V25.1909H123.969C124.139 25.1909 124.235 25.1426 124.235 24.9735C124.235 24.8286 124.163 24.7561 123.994 24.7561H123.704V24.732Z" fill="black"/>
</svg>
