<svg width="126" height="39" viewBox="0 0 126 39" fill="none" xmlns="http://www.w3.org/2000/svg">
<path d="M16.5168 27.295V9.90234H20.4785V27.295H16.5168ZM93.5278 20.7969C93.5278 16.5937 90.2667 13.9848 86.4499 13.9848C82.609 13.9848 79.3721 16.6179 79.3721 20.7969C79.3721 25.0002 82.6332 27.6332 86.4499 27.6332C90.2667 27.6332 93.5278 24.976 93.5278 20.7969ZM89.6144 20.7969C89.6144 22.9952 88.1409 24.2272 86.4258 24.2272C84.7107 24.2272 83.2371 22.9952 83.2371 20.7969C83.2371 18.5745 84.7107 17.3909 86.4258 17.3909C88.1409 17.3909 89.6144 18.5745 89.6144 20.7969ZM14.9225 22.2946C14.9225 20.338 13.9079 18.8403 12.0962 18.1639C13.8113 17.2218 14.4152 15.9898 14.4152 14.5404C14.4152 12.004 12.5793 9.90234 8.47268 9.9265H0.597656V27.3192H8.81087C12.9416 27.295 14.9225 25.2417 14.9225 22.2946ZM10.212 15.0477C10.212 16.2314 9.4631 16.9077 8.01371 16.9077H4.72842V13.2843H8.01371C9.34232 13.2843 10.212 13.864 10.212 15.0477ZM10.5743 22.0289C10.5743 23.1643 9.77713 23.9131 8.30359 23.9131H4.72842V20.1447H8.30359C9.72882 20.1447 10.5743 20.8694 10.5743 22.0289ZM49.418 17.5358C48.3309 15.2651 46.3018 14.009 43.2339 14.009C39.6104 14.009 36.3735 16.2797 36.3735 20.7969C36.3735 25.1934 39.2239 27.6332 43.1856 27.6332C45.9636 27.6332 48.3068 26.522 49.418 24.1305L46.2293 22.4879C45.6496 23.5508 44.7558 24.2272 43.3305 24.2272C41.4946 24.2272 40.311 22.9227 40.311 20.7969C40.311 18.6712 41.6637 17.3909 43.3064 17.3909C44.5867 17.3909 45.5529 17.9706 46.1569 19.2268L49.418 17.5358ZM107.804 17.5358C106.717 15.2651 104.688 14.009 101.62 14.009C97.9967 14.009 94.7598 16.2797 94.7598 20.7969C94.7598 25.1934 97.6102 27.6332 101.572 27.6332C104.35 27.6332 106.693 26.522 107.804 24.1305L104.616 22.4879C104.036 23.5508 103.142 24.2272 101.717 24.2272C99.881 24.2272 98.6973 22.9227 98.6973 20.7969C98.6973 18.6712 100.05 17.3909 101.693 17.3909C102.973 17.3909 103.939 17.9706 104.543 19.2268L107.804 17.5358ZM74.5891 27.295L71.2796 21.4492H68.7432V27.295H64.6608V9.90234H72.0285C76.0143 9.90234 78.7923 11.8107 78.7923 15.555C78.7923 17.9465 77.6086 19.6374 75.507 20.6762L79.3238 27.295H74.5891ZM68.7674 17.9948H71.8111C73.6953 17.9948 74.6132 16.9319 74.6132 15.6758C74.6132 14.178 73.7436 13.3567 71.8111 13.3567H68.7674V17.9948ZM35.7212 27.0776V24.3479C35.5521 24.3963 35.3106 24.4446 35.0449 24.4446C34.5376 24.4446 34.2718 24.1788 34.2718 23.7199V19.2026C34.2718 15.8207 32.0011 14.0331 28.2569 14.0331C25.8171 14.0331 23.7396 14.9269 22.4352 16.0864L24.6334 18.5504C25.503 17.7774 26.6625 17.2942 27.7979 17.2942C29.5372 17.2942 30.3585 18.1639 30.3585 19.5891V19.9998C29.5372 19.8065 28.4984 19.6133 27.2423 19.6133C24.0778 19.6133 22.0245 21.1351 22.0245 23.6474C22.0245 26.2322 23.7396 27.5849 26.3968 27.5849C28.2086 27.5849 29.827 26.8361 30.6725 25.8698C31.1798 27.1501 32.291 27.4883 33.3781 27.4883C34.1269 27.5124 34.9965 27.3917 35.7212 27.0776ZM30.3826 22.9952C30.3826 24.1788 29.2473 24.9519 27.9428 24.9519C26.7109 24.9519 26.1069 24.3238 26.1069 23.4542C26.1069 22.5362 26.7833 21.8598 28.1602 21.8598C29.0057 21.8598 29.7546 22.0048 30.3826 22.1497V22.9952ZM121.96 27.295L117.298 19.2026L121.67 14.4438H117.274L112.66 19.565V9.9265H108.722V27.3192H112.66V24.1788L114.544 22.1739L117.491 27.3192H121.96V27.295ZM63.622 27.295L58.9598 19.2026L63.3321 14.4438H58.8873L54.3218 19.565V9.9265H50.3842V27.3192H54.3218V24.1788L56.206 22.1739L59.1531 27.3192H63.622V27.295ZM124.376 24.8794C125.197 24.8794 125.68 25.3867 125.68 26.1597C125.68 26.9327 125.197 27.44 124.376 27.44C123.554 27.44 123.071 26.9327 123.071 26.1597C123.071 25.3867 123.554 24.8794 124.376 24.8794ZM124.376 27.2709C125.028 27.2709 125.463 26.8844 125.463 26.1597C125.463 25.435 125.004 25.0485 124.376 25.0485C123.723 25.0485 123.289 25.435 123.289 26.1597C123.264 26.9085 123.723 27.2709 124.376 27.2709ZM123.868 25.5075H124.4C124.714 25.5075 124.883 25.6766 124.883 25.9181C124.883 26.1355 124.786 26.2563 124.617 26.3288L124.859 26.7878H124.617L124.4 26.3771H124.11V26.7878H123.868V25.5075ZM124.11 25.7007V26.1597H124.376C124.545 26.1597 124.641 26.1114 124.641 25.9423C124.641 25.7973 124.569 25.7249 124.4 25.7249H124.11V25.7007Z" fill="#78716C"/>
</svg>
