<svg width="126" height="35" viewBox="0 0 126 35" fill="none" xmlns="http://www.w3.org/2000/svg">
<g clip-path="url(#clip0_1079_28754)">
<path d="M30.7114 19.3789C30.7114 19.3935 30.7114 19.4069 30.7114 19.4215C30.2913 22.4276 28.9105 25.2103 26.7812 27.342C24.6519 29.4737 21.892 30.8363 18.9258 31.2204V35.0007C22.8765 34.5998 26.5722 32.8347 29.3956 30.0002C32.219 27.1657 33.999 23.4335 34.4385 19.4268C34.4392 19.4126 34.4392 19.3984 34.4385 19.3842L30.7114 19.3789Z" fill="#6351ED"/>
<path d="M3.73361 19.4199H0.00390625C0.436953 23.3666 2.17041 27.0489 4.92314 29.8698C7.67587 32.6906 11.2864 34.4845 15.1692 34.9605V31.1696C12.2736 30.7165 9.59837 29.3296 7.53901 27.2136C5.47964 25.0977 4.14543 22.3652 3.73361 19.4199Z" fill="#6351ED"/>
<path d="M0 15.613H3.72971C4.13464 12.6609 5.46635 9.92006 7.52713 7.79742C9.58791 5.67478 12.2679 4.28347 15.1692 3.83004V0.0390625C11.2808 0.515698 7.6655 2.31405 4.91138 5.14164C2.15725 7.96924 0.426288 11.6597 0 15.613Z" fill="#6351ED"/>
<path d="M34.4392 15.6125C34.0069 11.5982 32.2293 7.85654 29.404 5.01429C26.5787 2.17204 22.8774 0.401781 18.9199 0V3.78034C21.8917 4.16504 24.6563 5.53205 26.787 7.67043C28.9177 9.80882 30.2961 12.5997 30.7095 15.6125C30.7095 15.6125 30.7095 15.6125 30.7095 15.6205H34.4392C34.4397 15.6178 34.4397 15.6151 34.4392 15.6125Z" fill="#6351ED"/>
<path d="M18.922 23.9114C17.679 24.2516 16.3647 24.2118 15.1439 23.7971C13.923 23.3823 12.8498 22.6111 12.0587 21.5799C11.2676 20.5486 10.7937 19.3034 10.6964 17.9999C10.5992 16.6965 10.8828 15.3929 11.5119 14.2525C12.141 13.112 13.0875 12.1853 14.2328 11.5885C15.3782 10.9918 16.6715 10.7514 17.9508 10.8975C19.2301 11.0437 20.4386 11.5698 21.4247 12.4101C22.4108 13.2504 23.1309 14.3674 23.4946 15.6213H27.2965C26.8348 13.0694 25.4502 10.785 23.4146 9.21659C21.379 7.64817 18.8395 6.90909 16.2947 7.14446C13.7499 7.37983 11.3837 8.57264 9.66067 10.4887C7.93769 12.4047 6.98242 14.9056 6.98242 17.5001C6.98242 20.0947 7.93769 22.5956 9.66067 24.5116C11.3837 26.4277 13.7499 27.6205 16.2947 27.8559C18.8395 28.0912 21.379 27.3521 23.4146 25.7837C25.4502 24.2153 26.8348 21.9309 27.2965 19.379H23.4946C23.1758 20.4674 22.5885 21.4551 21.7882 22.2483C20.9879 23.0416 20.0013 23.614 18.922 23.9114Z" fill="#6351ED"/>
<path d="M20.1194 17.5009C20.1205 18.1947 19.8805 18.8666 19.4417 19.3984C19.0029 19.9302 18.3933 20.2877 17.7204 20.408C17.0475 20.5284 16.3543 20.4038 15.7629 20.0563C15.1716 19.7087 14.7199 19.1605 14.4875 18.508C14.2551 17.8556 14.2568 17.1409 14.4924 16.4896C14.728 15.8384 15.1822 15.2924 15.7753 14.9478C16.3683 14.6032 17.0621 14.4821 17.7344 14.6058C18.4068 14.7295 19.0146 15.0901 19.4508 15.624C19.8833 16.1509 20.1199 16.8151 20.1194 17.5009Z" fill="#6351ED"/>
<path d="M53.4465 27.0162C51.1748 26.92 49.0289 25.9312 47.4617 24.2587C45.8946 22.5862 45.0288 20.3608 45.0472 18.0523C45.0655 15.7438 45.9667 13.533 47.5602 11.8864C49.1538 10.2398 51.3152 9.28639 53.5881 9.2274C54.91 9.20869 56.2179 9.50378 57.4076 10.0892C58.5973 10.6745 59.6359 11.534 60.4405 12.5991L57.968 14.9658C57.518 14.2514 56.8957 13.6656 56.1602 13.264C55.4246 12.8623 54.6002 12.6582 53.7651 12.6709C52.4017 12.7395 51.116 13.3353 50.1717 14.336C49.2274 15.3368 48.6962 16.6667 48.6871 18.0526C48.678 19.4385 49.1918 20.7754 50.1229 21.7888C51.0541 22.8022 52.332 23.4152 53.6943 23.5021C54.6854 23.4965 55.655 23.2076 56.4919 22.6685C57.3289 22.1294 57.9995 21.3619 58.4269 20.4539L61.1118 22.3547C60.3752 23.7684 59.2714 24.9503 57.9201 25.7721C56.5688 26.5939 55.0216 27.0241 53.4465 27.0162Z" fill="#6351ED"/>
<path d="M69.4838 27.0132C66.7635 27.0132 64.291 25.3986 64.291 21.3467V3.05469H67.967V21.167C67.967 23.0678 68.8846 23.7493 70.0868 23.7493C70.5799 23.737 71.0675 23.6402 71.5289 23.4631L72.7297 26.2584C71.7167 26.7528 70.6077 27.0107 69.4838 27.0132Z" fill="#6351ED"/>
<path d="M91.3128 18.1167C91.3128 19.8758 90.799 21.5955 89.8365 23.0581C88.8739 24.5208 87.5058 25.6608 85.9051 26.334C84.3045 27.0072 82.5431 27.1834 80.8439 26.8402C79.1446 26.497 77.5838 25.6499 76.3587 24.406C75.1336 23.1621 74.2993 21.5772 73.9613 19.8519C73.6233 18.1265 73.7968 16.3382 74.4598 14.7129C75.1228 13.0877 76.2456 11.6985 77.6861 10.7212C79.1267 9.74388 80.8203 9.22224 82.5529 9.22224C83.7122 9.18879 84.866 9.396 85.9437 9.83114C87.0214 10.2663 88.0003 10.9202 88.8204 11.7529C89.6405 12.5856 90.2845 13.5795 90.7131 14.6737C91.1417 15.768 91.3457 16.9396 91.3128 18.1167ZM77.4309 18.0807C77.4718 19.1002 77.8069 20.085 78.3945 20.9127C78.9822 21.7404 79.7966 22.3745 80.7363 22.736C81.676 23.0976 82.6996 23.1707 83.6799 22.9462C84.6603 22.7218 85.554 22.2098 86.25 21.4738C86.946 20.7378 87.4136 19.8103 87.5946 18.8067C87.7756 17.803 87.6621 16.7675 87.2682 15.8288C86.8742 14.8901 86.2172 14.0897 85.3789 13.5271C84.5405 12.9645 83.5578 12.6645 82.5529 12.6645C81.8594 12.6547 81.1714 12.7897 80.5315 13.0613C79.8916 13.3328 79.3136 13.7351 78.8332 14.243C78.3529 14.7509 77.9806 15.3537 77.7393 16.0139C77.4981 16.6741 77.3931 17.3776 77.4309 18.0807Z" fill="#6351ED"/>
<path d="M109.644 26.6539H106.041V24.391C105.505 25.219 104.769 25.8941 103.904 26.3524C103.038 26.8106 102.072 27.0367 101.096 27.0093C100.24 27.0367 99.3887 26.8803 98.5966 26.5503C97.8045 26.2203 97.0898 25.7242 96.4996 25.0944C95.9094 24.4646 95.4569 23.7153 95.1716 22.8956C94.8863 22.0759 94.7748 21.2043 94.8443 20.3378V9.65039H98.515V19.4127C98.515 21.995 99.8929 23.3221 101.8 23.3221C103.92 23.3221 105.969 21.637 105.969 18.3372V9.65837H109.64L109.644 26.6539Z" fill="#6351ED"/>
<path d="M121.939 27.0128C121.197 27.0595 120.455 26.9443 119.761 26.6749C119.067 26.4056 118.438 25.9884 117.916 25.4514C117.394 24.9145 116.992 24.2703 116.736 23.5622C116.48 22.854 116.377 22.0985 116.433 21.3463V13.0935H112.83V9.64993H116.433V5.31055H120.103V9.64993H124.448V13.0935H120.103V21.1626C120.054 21.4948 120.078 21.8339 120.175 22.1552C120.271 22.4764 120.438 22.7717 120.661 23.0193C120.885 23.2669 121.16 23.4606 121.467 23.5862C121.773 23.7118 122.104 23.766 122.434 23.745C123.218 23.7208 123.984 23.499 124.663 23.0994L126.005 25.8614C124.775 26.6074 123.371 27.005 121.939 27.0128Z" fill="#6351ED"/>
</g>
<defs>
<clipPath id="clip0_1079_28754">
<rect width="126" height="35" fill="white"/>
</clipPath>
</defs>
</svg>
