<svg width="125" height="48" viewBox="0 0 125 48" fill="none" xmlns="http://www.w3.org/2000/svg">
<g clip-path="url(#clip0_701_32128)">
<path d="M30.1425 16.0595V27.915H23.6131V16.8077C23.6131 14.9852 22.7994 14.1028 21.1912 14.1028C19.4281 14.1028 18.4981 15.3497 18.4981 17.364V27.9342H11.9881V16.8077C11.9881 14.9852 11.1744 14.1028 9.5275 14.1028C7.76438 14.1028 6.83438 15.3497 6.83438 17.364V27.9342H0.34375V8.55872H6.83438V10.3812C8.055 8.78892 9.79875 8.02157 12.1238 8.02157C14.3519 8.02157 16.0375 8.82729 17.1225 10.4963C18.4981 8.82729 20.3775 8.02157 22.7994 8.02157C27.3331 8.00239 30.1425 11.0718 30.1425 16.0595Z" fill="#78716C"/>
<path d="M45.8537 8.55897H52.3444V27.9153H45.8537V26.1312C44.5169 27.6851 42.6762 28.4524 40.2931 28.4524C37.6775 28.4524 35.4881 27.4933 33.725 25.5557C31.9619 23.5798 31.1094 21.1435 31.1094 18.2467C31.1094 15.35 31.9619 12.8945 33.725 10.9761C35.4881 9.0002 37.6775 8.04102 40.2931 8.04102C42.6762 8.04102 44.5169 8.80836 45.8537 10.3622V8.55897ZM41.7462 22.448C42.9669 22.448 43.9744 22.0643 44.7106 21.2778C45.4469 20.5104 45.8537 19.4937 45.8537 18.2275C45.8537 16.9422 45.4663 15.9447 44.7106 15.1773C43.9744 14.41 42.9475 14.0071 41.7462 14.0071C40.545 14.0071 39.5181 14.3908 38.7819 15.1773C38.0456 15.9447 37.6387 16.9614 37.6387 18.2275C37.6387 19.5129 38.0262 20.5104 38.7819 21.2778C39.5181 22.0643 40.545 22.448 41.7462 22.448Z" fill="#78716C"/>
<path d="M68.1191 8.55897H74.5322V27.148C74.5322 33.5745 69.3784 36.241 64.2441 36.241C59.9041 36.241 56.3391 34.6104 54.6147 31.5218L60.0203 28.4333C60.9503 29.9104 62.3259 30.6394 64.1666 30.6394C66.5109 30.6394 68.1191 29.4308 68.1191 27.148V25.2871C66.7822 26.8794 64.9416 27.6851 62.6359 27.6851C59.9428 27.6851 57.7147 26.7259 55.9516 24.8267C54.1884 22.9275 53.3359 20.6063 53.3359 17.8631C53.3359 15.1198 54.1884 12.7986 55.9516 10.8994C57.7147 9.0002 59.9428 8.04102 62.6359 8.04102C64.9416 8.04102 66.7822 8.84673 68.1191 10.439V8.55897ZM63.9728 21.8724C65.1934 21.8724 66.2009 21.4888 66.9372 20.7406C67.7122 19.9733 68.1191 18.9949 68.1191 17.8439C68.1191 16.6737 67.7316 15.7145 66.9372 14.9855C66.2009 14.2182 65.1741 13.8153 63.9728 13.8153C62.7522 13.8153 61.7447 14.199 60.9697 14.9855C60.2334 15.7145 59.8266 16.6929 59.8266 17.8439C59.8266 19.0141 60.2141 19.9733 60.9697 20.7406C61.7447 21.4888 62.7522 21.8724 63.9728 21.8724Z" fill="#78716C"/>
<path d="M95.0098 16.3281V27.915H88.5192V17.153C88.5192 15.1387 87.3373 14.1028 85.5936 14.1028C83.5592 14.1028 82.3773 15.3497 82.3773 17.6326V27.9342H75.8867V8.55872H82.3773V10.4963C83.5592 8.82729 85.3417 8.02158 87.8217 8.02158C92.0261 8.00239 95.0098 10.9567 95.0098 16.3281Z" fill="#78716C"/>
<path d="M124.113 8.55814V27.9145H117.622V14.7161H113.166V27.9145H106.675V14.7161H104.215V8.55814H106.675C106.675 3.01405 109.969 0.232422 116.537 0.232422C118.262 0.232422 119.947 0.424259 121.614 0.807932V6.42875C119.928 6.19854 118.32 6.08344 116.809 6.08344C114.425 6.08344 113.166 6.69732 113.166 8.55814H124.113Z" fill="#78716C"/>
<path d="M102.838 8.55859H96.3477V27.9149H102.838V8.55859Z" fill="#78716C"/>
<path d="M97.2961 5.70049C96.0367 4.396 96.0367 2.40089 97.2961 1.15395C98.6136 -0.0929847 100.629 -0.0929847 101.888 1.15395C103.205 2.40089 103.205 4.396 101.888 5.70049C100.629 6.94742 98.633 6.94742 97.2961 5.70049Z" fill="#78716C"/>
<path d="M105.957 37.6034C106.015 37.6609 106.054 37.7377 106.054 37.8144C106.054 37.8911 106.015 37.9679 105.957 38.0254C105.899 38.083 105.821 38.1213 105.724 38.1213H103.651V44.6246C103.651 44.7013 103.612 44.7781 103.554 44.8356C103.496 44.8932 103.419 44.9315 103.341 44.9315C103.244 44.9315 103.167 44.8932 103.109 44.8356C103.05 44.7781 103.012 44.7013 103.012 44.6246V38.1022H100.919C100.842 38.1022 100.764 38.0638 100.687 38.0062C100.629 37.9487 100.59 37.872 100.59 37.7952C100.59 37.7185 100.629 37.6418 100.687 37.5842C100.745 37.5266 100.822 37.4883 100.919 37.4883H105.705C105.821 37.5075 105.899 37.5458 105.957 37.6034Z" fill="#78716C"/>
<path d="M107.546 37.6037C107.604 37.5462 107.682 37.5078 107.779 37.5078C107.875 37.5078 107.953 37.5462 108.011 37.6037C108.069 37.6613 108.108 37.738 108.108 37.8339V44.5866C108.108 44.6825 108.069 44.7592 108.011 44.8168C107.953 44.8743 107.875 44.9127 107.779 44.9127C107.682 44.9127 107.604 44.8743 107.546 44.8168C107.488 44.7592 107.449 44.6825 107.449 44.6058V37.8148C107.449 37.738 107.469 37.6613 107.546 37.6037Z" fill="#78716C"/>
<path d="M110.76 44.5866C110.76 44.6825 110.722 44.7592 110.663 44.8168C110.605 44.8743 110.528 44.9127 110.431 44.9127C110.334 44.9127 110.257 44.8743 110.198 44.8168C110.14 44.7592 110.102 44.6825 110.102 44.6058V37.9874C110.102 37.8531 110.16 37.738 110.257 37.6421C110.353 37.5462 110.47 37.5078 110.625 37.5078H114.267C114.383 37.5078 114.461 37.527 114.519 37.5845C114.577 37.6421 114.616 37.7188 114.616 37.8148C114.616 37.8915 114.577 37.9682 114.519 38.0258C114.461 38.0833 114.383 38.1217 114.287 38.1217H110.76V40.7499H113.647C113.763 40.7499 113.841 40.7882 113.899 40.8458C113.957 40.9033 113.996 40.9801 113.996 41.0568C113.996 41.1527 113.957 41.2294 113.899 41.287C113.841 41.3445 113.763 41.3829 113.667 41.3829H110.76V44.5866Z" fill="#78716C"/>
<path d="M116.206 37.6037C116.264 37.5462 116.342 37.5078 116.439 37.5078C116.536 37.5078 116.613 37.5462 116.671 37.6037C116.729 37.6613 116.768 37.738 116.768 37.8339V44.5866C116.768 44.6825 116.729 44.7592 116.671 44.8168C116.613 44.8743 116.536 44.9127 116.439 44.9127C116.342 44.9127 116.264 44.8743 116.206 44.8168C116.148 44.7592 116.109 44.6825 116.109 44.6058V37.8148C116.109 37.738 116.129 37.6613 116.206 37.6037Z" fill="#78716C"/>
<path d="M124.015 37.6032C124.074 37.6608 124.112 37.7375 124.112 37.8142V44.1065C124.112 44.3367 124.035 44.5285 123.88 44.682C123.725 44.8355 123.531 44.9122 123.279 44.9122C123.124 44.9122 122.969 44.8738 122.834 44.7779C122.698 44.682 122.601 44.5669 122.524 44.4326L119.927 38.7926C119.869 38.6583 119.772 38.6008 119.637 38.6008C119.559 38.6008 119.482 38.6391 119.424 38.6967C119.365 38.7542 119.327 38.831 119.327 38.9269V44.6244C119.327 44.7012 119.288 44.7779 119.23 44.8355C119.172 44.893 119.094 44.9314 118.997 44.9314C118.9 44.9314 118.823 44.893 118.765 44.8355C118.707 44.7779 118.668 44.7012 118.668 44.6244V38.3322C118.668 38.102 118.745 37.9101 118.9 37.7567C119.055 37.6032 119.249 37.5265 119.501 37.5265C119.656 37.5265 119.811 37.5648 119.947 37.6608C120.082 37.7567 120.179 37.8718 120.257 38.0061L122.872 43.6461C122.892 43.7036 122.93 43.7612 122.989 43.7995C123.047 43.8379 123.105 43.8571 123.163 43.8571C123.24 43.8571 123.318 43.8187 123.376 43.7612C123.434 43.7036 123.473 43.6269 123.473 43.531V37.8334C123.473 37.7567 123.512 37.6799 123.57 37.6224C123.628 37.5648 123.705 37.5265 123.802 37.5265C123.88 37.5073 123.957 37.5457 124.015 37.6032Z" fill="#78716C"/>
<path d="M89.0422 37.6041C89.1003 37.5465 89.1778 37.5273 89.2553 37.5273C89.3522 37.5273 89.4297 37.5465 89.4878 37.6041C89.5459 37.6616 89.5847 37.7384 89.5847 37.8151V39.5224H91.3091C91.6191 39.5224 91.8903 39.5992 92.1616 39.7335C92.4134 39.8678 92.6266 40.0788 92.7816 40.3473C92.9366 40.6159 93.0141 40.9229 93.0141 41.2682V42.8796C93.0141 43.1673 92.9559 43.4743 92.8397 43.7812C92.7234 44.0882 92.5297 44.3375 92.2778 44.5486C92.0259 44.7596 91.6966 44.8555 91.3091 44.8555H89.4297C89.2941 44.8555 89.1778 44.8171 89.0809 44.7212C88.9841 44.6253 88.9453 44.5294 88.9453 44.3951V37.7959C88.9453 37.7192 88.9647 37.6424 89.0422 37.6041ZM91.2703 44.28C91.5803 44.28 91.8322 44.1457 92.0453 43.8771C92.2584 43.6086 92.3553 43.2633 92.3553 42.8412V41.2682C92.3553 40.9229 92.2584 40.6351 92.0453 40.4049C91.8322 40.1747 91.5803 40.0596 91.3091 40.0596H89.5847V44.2608H91.2703V44.28Z" fill="#78716C"/>
<path d="M97.8577 39.5995C97.9158 39.657 97.9352 39.7146 97.9352 39.7913C97.9352 39.8105 97.9352 39.8489 97.9158 39.8872L95.6489 47.0236C95.6295 47.0811 95.6102 47.1195 95.552 47.1578C95.4939 47.1962 95.4358 47.2154 95.3583 47.1962C95.2614 47.1962 95.1839 47.1578 95.1258 47.0811C95.0677 47.0044 95.0483 46.9276 95.087 46.8509L95.7264 44.8174L95.5908 44.7983C95.397 44.7599 95.2614 44.6448 95.2033 44.4338L93.7889 39.868C93.7889 39.8489 93.7695 39.8105 93.7695 39.7913C93.7695 39.7146 93.7889 39.657 93.847 39.5995C93.9052 39.5419 93.9633 39.5227 94.0408 39.5036C94.1183 39.5036 94.1958 39.5036 94.2539 39.5419C94.312 39.5803 94.3508 39.6378 94.3702 39.6954L95.6295 43.7431C95.6489 43.7815 95.6683 43.8007 95.707 43.8391C95.7458 43.8583 95.7845 43.8774 95.8427 43.8774C95.8814 43.8774 95.9202 43.8583 95.9783 43.8391C96.017 43.8199 96.0364 43.7815 96.0558 43.7431L97.3345 39.7146C97.3539 39.6378 97.412 39.5803 97.4702 39.5419C97.5283 39.5036 97.5864 39.4844 97.6639 39.4844C97.7414 39.5227 97.8189 39.5419 97.8577 39.5995Z" fill="#78716C"/>
</g>
<defs>
<clipPath id="clip0_701_32128">
<rect width="124" height="47" fill="white" transform="translate(0.34375 0.21875)"/>
</clipPath>
</defs>
</svg>
