<svg width="117" height="27" viewBox="0 0 117 27" fill="none" xmlns="http://www.w3.org/2000/svg">
<g clip-path="url(#clip0_1079_28774)">
<path d="M82.976 11.727V6.48C83.0014 6.03718 82.9132 5.59521 82.7196 5.19613C82.526 4.79706 82.2335 4.45414 81.87 4.2C81.2045 3.76081 80.4233 3.52966 79.626 3.536C78.8888 3.50158 78.1577 3.68381 77.5229 4.06021C76.8881 4.4366 76.3775 4.99067 76.054 5.654L77.254 6.254C77.4386 5.78553 77.7685 5.3885 78.1951 5.12109C78.6218 4.85368 79.1229 4.72994 79.625 4.768C80.889 4.768 81.553 5.337 81.553 6.475V6.823C81.553 6.823 81.553 6.918 81.49 6.918C81.427 6.981 81.332 7.044 80.984 7.076C79.6359 7.12508 78.317 7.48184 77.128 8.119C76.6628 8.39041 76.2757 8.77752 76.0042 9.24273C75.7328 9.70795 75.5863 10.2354 75.579 10.774C75.6171 11.5495 75.9442 12.2827 76.496 12.829C77.0312 13.2938 77.7151 13.5517 78.424 13.556C79.0221 13.6229 79.6272 13.5294 80.1772 13.2849C80.7271 13.0404 81.202 12.6539 81.553 12.165C81.5385 12.3787 81.5878 12.5919 81.6946 12.7776C81.8015 12.9633 81.961 13.1131 82.153 13.208C82.5763 13.3684 83.035 13.4119 83.481 13.334V12.328C83.407 12.3255 83.3344 12.3075 83.2678 12.2751C83.2013 12.2427 83.1423 12.1966 83.0947 12.14C83.047 12.0833 83.0119 12.0172 82.9914 11.9461C82.971 11.875 82.9657 11.8003 82.976 11.727ZM81.617 10.589C81.522 11.411 79.973 12.489 78.709 12.359C78.3178 12.3499 77.9451 12.1904 77.6684 11.9136C77.3916 11.6369 77.2321 11.2642 77.223 10.873C77.128 9.261 78.266 8.597 80.89 8.313C81.1392 8.29965 81.3847 8.2463 81.617 8.155V10.589ZM20.417 12.075C21.1791 11.0559 21.5694 9.80667 21.523 8.535C21.5694 7.26333 21.1791 6.01409 20.417 4.995C20.0639 4.52862 19.6046 4.15329 19.0773 3.90021C18.5499 3.64714 17.9697 3.52365 17.385 3.54C16.7949 3.51954 16.2085 3.6409 15.6751 3.89389C15.1416 4.14689 14.6766 4.52414 14.319 4.994C13.5569 6.01309 13.1666 7.26233 13.213 8.534C13.1666 9.80567 13.5569 11.0549 14.319 12.074C14.6789 12.5413 15.1444 12.9167 15.6773 13.1694C16.2102 13.4221 16.7954 13.545 17.385 13.528C17.97 13.545 18.5507 13.422 19.0786 13.1693C19.6065 12.9165 20.0664 12.5414 20.42 12.075H20.417ZM14.822 8.535C14.822 6.164 15.739 4.71 17.414 4.71C18.994 4.71 19.943 6.164 19.943 8.535C19.943 10.906 19.026 12.36 17.414 12.36C15.773 12.359 14.825 10.905 14.825 8.535H14.822ZM32.622 13.498C33.0876 13.4828 33.5434 13.3609 33.9545 13.1418C34.3656 12.9226 34.7209 12.6121 34.993 12.234H35.056V14.067C35.046 14.3501 34.9798 14.6283 34.8611 14.8855C34.7425 15.1427 34.5738 15.3737 34.3649 15.565C34.156 15.7563 33.9111 15.9041 33.6445 15.9997C33.3779 16.0953 33.0949 16.1369 32.812 16.122C31.7901 16.1379 30.7767 15.9332 29.841 15.522V16.85C30.7349 17.1606 31.6768 17.3106 32.623 17.293C35.247 17.293 36.511 15.839 36.511 13.693V3.762H35.4L35.084 4.774C34.8161 4.37965 34.4526 4.05963 34.0275 3.84384C33.6023 3.62804 33.1295 3.52351 32.653 3.54C30.946 3.54 28.607 4.71 28.607 8.534C28.607 12.3 30.978 13.5 32.621 13.5L32.622 13.498ZM32.78 4.774C33.2243 4.77167 33.6622 4.88018 34.054 5.08971C34.4458 5.29924 34.7792 5.60317 35.024 5.974V10.557C34.8579 11.0354 34.5584 11.4564 34.1607 11.77C33.7631 12.0837 33.284 12.2769 32.78 12.327C31.231 12.327 30.156 11.315 30.156 8.439C30.156 6.037 31.136 4.773 32.779 4.773L32.78 4.774ZM96.88 11.507V0H95.335V12.012C95.3304 12.2487 95.3897 12.4822 95.5067 12.6879C95.6238 12.8937 95.7942 13.064 96 13.181C96.4705 13.4479 97.0096 13.569 97.549 13.529C97.8773 13.5172 98.2046 13.4855 98.529 13.434V12.391H97.992C96.979 12.359 96.884 11.917 96.884 11.506L96.88 11.507ZM1.549 1.486L5.121 13.4H6.259L9.831 1.486V13.4H11.317V0.348H8.851L5.721 10.811L5.658 10.874V10.811L2.529 0.348H0V13.4H1.549V1.486ZM103.522 3.54C102.935 3.53269 102.353 3.65136 101.815 3.888C101.291 4.10127 100.832 4.45061 100.488 4.9C99.7475 5.97485 99.3811 7.26335 99.445 8.567C99.404 9.27266 99.503 9.97945 99.7362 10.6467C99.9695 11.314 100.332 11.9285 100.804 12.455C101.186 12.8338 101.641 13.1324 102.14 13.3333C102.639 13.5342 103.174 13.6334 103.712 13.625C104.486 13.687 105.26 13.4995 105.92 13.0899C106.58 12.6804 107.091 12.0703 107.379 11.349L106.179 10.749C105.994 11.2502 105.656 11.6811 105.214 11.9813C104.772 12.2816 104.247 12.4364 103.713 12.424C103.319 12.4332 102.928 12.3458 102.576 12.1694C102.223 11.993 101.919 11.733 101.69 11.412C101.157 10.6695 100.899 9.764 100.963 8.852H107.506V7.9C107.555 7.26913 107.474 6.63489 107.268 6.03672C107.061 5.43856 106.734 4.88926 106.306 4.423C105.526 3.78131 104.529 3.46504 103.522 3.54ZM101.057 7.65C101.152 5.659 101.942 4.774 103.523 4.774C105.293 4.774 106.052 5.659 106.052 7.65H101.057ZM24.877 7.9C25.193 5.909 26.236 4.96 28.006 4.96V3.572C27.3429 3.54139 26.6866 3.71619 26.1266 4.07253C25.5665 4.42888 25.1302 4.94939 24.877 5.563H24.814L24.877 5.437V3.73H23.328V13.371H24.877V7.9ZM67.392 7.141C66.5222 6.58255 65.5741 6.15656 64.579 5.877C62.935 5.34 61.386 4.834 61.45 3.443C61.4326 3.16621 61.4774 2.88903 61.5812 2.63186C61.6851 2.3747 61.8453 2.14409 62.05 1.957C62.5486 1.55369 63.1798 1.35081 63.82 1.388C64.5351 1.40521 65.2287 1.63651 65.811 2.052C66.3227 2.46347 66.6883 3.02866 66.854 3.664L68.213 3.506C68.0207 2.77313 67.6478 2.10014 67.1283 1.54857C66.6088 0.997001 65.9594 0.584439 65.2394 0.348603C64.5193 0.112766 63.7516 0.0611786 63.0065 0.198556C62.2614 0.335933 61.5626 0.657892 60.974 1.135C60.625 1.43697 60.3455 1.81084 60.1546 2.23096C59.9637 2.65109 59.8659 3.10754 59.868 3.569C59.8615 4.0475 59.9735 4.52017 60.1941 4.94487C60.4146 5.36956 60.7368 5.73308 61.132 6.003C61.9684 6.58061 62.899 7.00832 63.882 7.267C65.526 7.867 67.138 8.437 67.138 9.985C67.1526 10.2907 67.1007 10.596 66.9861 10.8797C66.8715 11.1635 66.6968 11.4191 66.474 11.629C65.8868 12.1047 65.1421 12.3417 64.388 12.293C63.6087 12.2778 62.8553 12.011 62.24 11.5325C61.6248 11.0541 61.1807 10.3895 60.974 9.638L59.552 10.017C59.9174 10.9223 60.4539 11.7487 61.132 12.451C62.0181 13.2103 63.1591 13.6056 64.325 13.557C64.9515 13.6124 65.5825 13.534 66.1764 13.3272C66.7703 13.1203 67.3135 12.7896 67.77 12.357C68.3971 11.6171 68.7246 10.6692 68.688 9.7C68.6956 9.20076 68.5816 8.70717 68.3559 8.26185C68.1301 7.81653 67.7992 7.43287 67.392 7.144V7.141ZM72.608 0.537H71.059V3.7H69.637V4.9H71.059V12.012C71.05 12.2421 71.1005 12.4707 71.2056 12.6757C71.3107 12.8806 71.4669 13.055 71.659 13.182C72.1325 13.4409 72.6693 13.5615 73.208 13.53C73.5365 13.5223 73.8641 13.4905 74.188 13.435V12.391H73.682C72.702 12.391 72.576 11.948 72.576 11.569V4.931H74.156V3.73H72.576V0.537H72.608ZM52.6 3.54C52.0568 3.57355 51.5272 3.72363 51.0472 3.98004C50.5671 4.23645 50.1479 4.59318 49.818 5.026V3.762H48.268V13.4H49.817V6.259C50.4815 5.46066 51.4146 4.93227 52.441 4.773C53.484 4.773 53.99 5.279 53.99 6.417V13.4H55.476V6.354C55.4969 5.97363 55.4363 5.59318 55.2984 5.23811C55.1604 4.88304 54.9481 4.56154 54.6758 4.29512C54.4035 4.02871 54.0775 3.82352 53.7195 3.69329C53.3615 3.56306 52.9798 3.5108 52.6 3.54ZM114.777 3.698L112.564 11.126V11.284L112.501 11.126L109.971 3.7H108.485L111.867 13.278V13.341C111.691 14.2717 111.226 15.1233 110.539 15.775C110.137 16.0095 109.675 16.1194 109.211 16.091C108.967 16.0729 108.724 16.0412 108.484 15.996V17.166C108.802 17.2622 109.132 17.3153 109.464 17.324C110.104 17.3291 110.731 17.142 111.264 16.787C112.006 16.0743 112.551 15.1812 112.844 14.195L116.2 3.73H114.778L114.777 3.698ZM89.9 3.54C89.3484 3.57582 88.8104 3.72652 88.3205 3.98242C87.8306 4.23832 87.3995 4.59377 87.055 5.026L87.118 3.762H85.568V13.4H87.117V6.259C87.7813 5.46087 88.7139 4.93251 89.74 4.773C90.783 4.773 91.289 5.279 91.289 6.417V13.4H92.775V6.354C92.7909 5.97498 92.7269 5.59686 92.5872 5.24416C92.4476 4.89147 92.2353 4.57208 91.9642 4.30673C91.6931 4.04138 91.3692 3.836 91.0136 3.70391C90.658 3.57182 90.2786 3.51597 89.9 3.54ZM44.222 6.923C44.222 6.986 44.064 7.049 43.716 7.081C42.3862 7.11888 41.0852 7.47664 39.923 8.124C39.4488 8.38503 39.0543 8.76982 38.7815 9.23738C38.5087 9.70493 38.3679 10.2377 38.374 10.779C38.3864 11.5539 38.7045 12.2925 39.259 12.834C39.7942 13.2988 40.4781 13.5567 41.187 13.561C41.7851 13.6279 42.3902 13.5344 42.9402 13.2899C43.4901 13.0454 43.965 12.6589 44.316 12.17C44.3135 12.3895 44.375 12.6051 44.4929 12.7903C44.6108 12.9755 44.78 13.1224 44.98 13.213C45.3806 13.3751 45.8193 13.4189 46.244 13.339V12.328C45.896 12.265 45.675 12.107 45.675 11.728V6.48C45.7005 6.03727 45.6124 5.59536 45.419 5.19629C45.2256 4.79722 44.9333 4.45426 44.57 4.2C43.9045 3.76081 43.1233 3.52966 42.326 3.536C41.5888 3.50158 40.8577 3.68381 40.2229 4.06021C39.5881 4.4366 39.0775 4.99067 38.754 5.654L39.954 6.254C40.1386 5.78553 40.4685 5.3885 40.8951 5.12109C41.3218 4.85368 41.8229 4.72994 42.325 4.768C43.589 4.768 44.253 5.337 44.253 6.475V6.823C44.254 6.8 44.254 6.923 44.222 6.923ZM44.317 8.123V10.557C44.222 11.379 42.673 12.457 41.409 12.327C41.0178 12.3179 40.6451 12.1584 40.3684 11.8816C40.0916 11.6049 39.9321 11.2322 39.923 10.841C39.828 9.229 41.029 8.565 43.59 8.281C43.8426 8.30227 44.0957 8.24759 44.317 8.124V8.123ZM2.94 19.977L0 26.774H1.8L2.274 25.636H5.374L5.848 26.774H7.681L4.741 19.974H2.94V19.977ZM2.814 24.213L3.794 21.813L4.774 24.213H2.814ZM41.414 22.127C41.414 20.799 40.497 20.009 38.914 20.009H34.961V26.809H36.668V24.34H38.027L39.544 26.74H41.444L39.8 24.213C40.2794 24.1273 40.7098 23.8663 41.0072 23.4806C41.3047 23.095 41.4479 22.6125 41.409 22.127H41.414ZM38.822 22.827H36.7V21.495H38.818C39.355 21.495 39.703 21.653 39.703 22.159C39.7 22.633 39.386 22.822 38.817 22.822L38.822 22.827ZM48.9 19.977H46.783L44.349 22.506V19.977H42.642V26.742H44.349V24.656L44.949 24.056L47.1 26.774H49.09L46.09 22.918L48.9 19.977ZM30.282 19.882C29.8063 19.8466 29.3285 19.912 28.8799 20.0741C28.4312 20.2362 28.0219 20.4912 27.6787 20.8225C27.3356 21.1538 27.0662 21.5539 26.8884 21.9965C26.7106 22.4392 26.6284 22.9144 26.647 23.391C26.6306 23.8671 26.7144 24.3413 26.8929 24.7829C27.0715 25.2245 27.3409 25.6236 27.6836 25.9545C28.0263 26.2853 28.4347 26.5404 28.8823 26.7033C29.33 26.8662 29.8068 26.9332 30.282 26.9C30.7552 26.9317 31.2298 26.8634 31.6748 26.6995C32.1199 26.5357 32.5254 26.2799 32.865 25.9488C33.2046 25.6178 33.4707 25.2189 33.646 24.7782C33.8212 24.3375 33.9016 23.8649 33.882 23.391C33.904 22.9166 33.8252 22.4429 33.6508 22.0011C33.4764 21.5593 33.2104 21.1595 32.8702 20.8281C32.5301 20.4966 32.1236 20.241 31.6774 20.0781C31.2313 19.9152 30.7557 19.8487 30.282 19.883V19.882ZM30.282 25.382C30.0253 25.3903 29.7698 25.3432 29.533 25.2438C29.2961 25.1445 29.0835 24.9952 28.9095 24.8063C28.7356 24.6173 28.6044 24.3931 28.5249 24.1489C28.4454 23.9046 28.4195 23.6461 28.449 23.391C28.4276 23.1372 28.4591 22.8818 28.5416 22.6409C28.624 22.3999 28.7556 22.1787 28.9279 21.9912C29.1002 21.8038 29.3096 21.6541 29.5428 21.5517C29.776 21.4493 30.0278 21.3965 30.2825 21.3965C30.5372 21.3965 30.789 21.4493 31.0222 21.5517C31.2554 21.6541 31.4648 21.8038 31.6371 21.9912C31.8095 22.1787 31.941 22.3999 32.0234 22.6409C32.1059 22.8818 32.1374 23.1372 32.116 23.391C32.1484 23.6468 32.1246 23.9066 32.0462 24.1523C31.9677 24.398 31.8366 24.6235 31.6619 24.8132C31.4873 25.0029 31.2733 25.1522 31.0349 25.2506C30.7966 25.349 30.5396 25.3942 30.282 25.383V25.382ZM23.454 24.212L22.032 19.976H20.483L19.061 24.212L17.761 20.039V20.007H15.931L18.175 26.772H19.724L21.21 22.441L22.7 26.774H24.34L26.553 19.974H24.814L23.454 24.212ZM6.7 21.463H9.23V26.773H10.937V21.463H13.466V19.977H6.7V21.463Z" fill="#231F20"/>
</g>
<defs>
<clipPath id="clip0_1079_28774">
<rect width="116.198" height="26.9" fill="white"/>
</clipPath>
</defs>
</svg>
