<svg width="126" height="23" viewBox="0 0 126 23" fill="none" xmlns="http://www.w3.org/2000/svg">
<g clip-path="url(#clip0_735_37150)">
<path d="M18.2709 10.3501V17.5583H14.3975V10.805C14.3975 9.69694 13.9148 9.1604 12.9608 9.1604C11.9149 9.1604 11.3632 9.91855 11.3632 11.1433V17.57H7.50139V10.805C7.50139 9.69694 7.01866 9.1604 6.04171 9.1604C4.99579 9.1604 4.44411 9.91855 4.44411 11.1433V17.57H0.59375V5.78954H4.44411V6.89761C5.1682 5.9295 6.20262 5.46294 7.58185 5.46294C8.90361 5.46294 9.90356 5.95283 10.5472 6.9676C11.3632 5.95283 12.4781 5.46294 13.9148 5.46294C16.6043 5.45128 18.2709 7.3175 18.2709 10.3501Z" fill="#78716C"/>
<path d="M27.5924 5.78954H31.4427V17.5584H27.5924V16.4736C26.7993 17.4184 25.7075 17.8849 24.2937 17.8849C22.7421 17.8849 21.4433 17.3018 20.3974 16.1237C19.3514 14.9223 18.8457 13.441 18.8457 11.6798C18.8457 9.91854 19.3514 8.42558 20.3974 7.25918C21.4433 6.05781 22.7421 5.47461 24.2937 5.47461C25.7075 5.47461 26.7993 5.94117 27.5924 6.88594V5.78954ZM25.1557 14.2342C25.8799 14.2342 26.4775 14.0009 26.9143 13.5227C27.3511 13.0561 27.5924 12.4379 27.5924 11.6681C27.5924 10.8866 27.3625 10.2801 26.9143 9.81358C26.4775 9.34702 25.8684 9.10208 25.1557 9.10208C24.4432 9.10208 23.834 9.33536 23.3972 9.81358C22.9605 10.2801 22.719 10.8983 22.719 11.6681C22.719 12.4496 22.9489 13.0561 23.3972 13.5227C23.834 14.0009 24.4432 14.2342 25.1557 14.2342Z" fill="#78716C"/>
<path d="M40.7989 5.78954H44.6033V17.0919C44.6033 20.9992 41.546 22.6205 38.5002 22.6205C35.9256 22.6205 33.8108 21.629 32.7878 19.7512L35.9946 17.8733C36.5462 18.7714 37.3624 19.2147 38.4542 19.2147C39.8449 19.2147 40.7989 18.4798 40.7989 17.0919V15.9604C40.0059 16.9286 38.914 17.4184 37.5462 17.4184C35.9486 17.4184 34.6269 16.8353 33.5809 15.6805C32.535 14.5258 32.0293 13.1145 32.0293 11.4465C32.0293 9.77858 32.535 8.36725 33.5809 7.21253C34.6269 6.05781 35.9486 5.47461 37.5462 5.47461C38.914 5.47461 40.0059 5.96449 40.7989 6.9326V5.78954ZM38.3393 13.8843C39.0634 13.8843 39.661 13.651 40.0978 13.1961C40.5576 12.7295 40.7989 12.1347 40.7989 11.4348C40.7989 10.7234 40.5691 10.1402 40.0978 9.69694C39.661 9.23038 39.0519 8.98544 38.3393 8.98544C37.6152 8.98544 37.0176 9.21872 36.5578 9.69694C36.121 10.1402 35.8797 10.735 35.8797 11.4348C35.8797 12.1463 36.1096 12.7295 36.5578 13.1961C37.0176 13.651 37.6152 13.8843 38.3393 13.8843Z" fill="#78716C"/>
<path d="M56.6781 10.7517V17.7967H52.8277V11.2532C52.8277 10.0285 52.1267 9.39867 51.0923 9.39867C49.8855 9.39867 49.1844 10.1568 49.1844 11.5448V17.8083H45.334V6.02781H49.1844V7.20587C49.8855 6.19111 50.9428 5.70123 52.414 5.70123C54.9081 5.68957 56.6781 7.4858 56.6781 10.7517Z" fill="#78716C"/>
<path d="M74.0148 5.79064V17.5595H70.1646V9.53474H67.5209V17.5595H63.6707V9.53474H62.2109V5.79064H63.6707C63.6707 2.41977 65.6245 0.728516 69.5208 0.728516C70.5438 0.728516 71.5438 0.845154 72.5322 1.07843V4.49595C71.5323 4.35599 70.5783 4.286 69.6818 4.286C68.268 4.286 67.5209 4.65924 67.5209 5.79064H74.0148Z" fill="#78716C"/>
<path d="M61.3953 5.78906H57.5449V17.5579H61.3953V5.78906Z" fill="#78716C"/>
<path d="M58.1072 4.0517C57.3601 3.25856 57.3601 2.04552 58.1072 1.28736C58.8888 0.529212 60.0841 0.529212 60.8312 1.28736C61.6127 2.04552 61.6127 3.25856 60.8312 4.0517C60.0841 4.80985 58.9002 4.80985 58.1072 4.0517Z" fill="#78716C"/>
<path d="M76.5371 17.0192H120.305C123.226 17.0192 125.594 14.588 125.594 11.5887V11.3172C125.594 8.31804 123.226 5.88672 120.305 5.88672H81.8262C78.9051 5.88672 76.5371 8.31804 76.5371 11.3172V17.0192Z" fill="#78716C"/>
<path d="M83.6719 14.3083V8.23915H86.1094C86.6342 8.23915 87.0827 8.32585 87.4551 8.49926C87.8332 8.67266 88.1237 8.92121 88.327 9.24488C88.5301 9.56858 88.6316 9.95297 88.6316 10.398C88.6316 10.8431 88.5301 11.2275 88.327 11.5512C88.1237 11.8749 87.8332 12.1234 87.4551 12.2968C87.0827 12.4702 86.6342 12.5569 86.1094 12.5569H84.2812L84.7722 12.028V14.3083H83.6719ZM84.7722 12.1494L84.2812 11.6032H86.0586C86.5438 11.6032 86.9079 11.4991 87.1505 11.2911C87.3987 11.0772 87.5228 10.7795 87.5228 10.398C87.5228 10.0107 87.3987 9.71309 87.1505 9.505C86.9079 9.29692 86.5438 9.19287 86.0586 9.19287H84.2812L84.7722 8.63798V12.1494ZM91.4828 14.369C90.9805 14.369 90.5404 14.2679 90.1624 14.0655C89.79 13.8574 89.4993 13.5742 89.2906 13.2158C89.0875 12.8575 88.986 12.45 88.986 11.9933C88.986 11.5309 89.0847 11.1234 89.2822 10.7708C89.4853 10.4125 89.7617 10.1321 90.1116 9.92984C90.4671 9.72753 90.8705 9.62638 91.322 9.62638C91.7621 9.62638 92.1542 9.72464 92.4985 9.92117C92.8425 10.1177 93.1134 10.3951 93.3109 10.7535C93.5084 11.1119 93.6071 11.5338 93.6071 12.0193C93.6071 12.0656 93.6042 12.1176 93.5987 12.1754C93.5987 12.2332 93.5958 12.2881 93.5902 12.3402H89.8239V11.6205H93.0316L92.617 11.8459C92.6224 11.5801 92.5689 11.346 92.4562 11.1437C92.3431 10.9414 92.1881 10.7824 91.9906 10.6668C91.7987 10.5512 91.5759 10.4934 91.322 10.4934C91.0624 10.4934 90.8338 10.5512 90.6365 10.6668C90.4446 10.7824 90.2922 10.9443 90.1794 11.1523C90.0721 11.3546 90.0186 11.5945 90.0186 11.872V12.0454C90.0186 12.3228 90.0806 12.5685 90.2048 12.7823C90.3289 12.9962 90.5038 13.1609 90.7295 13.2765C90.9551 13.3921 91.2147 13.4499 91.5081 13.4499C91.7621 13.4499 91.9906 13.4095 92.1938 13.3285C92.3969 13.2476 92.5773 13.1205 92.7355 12.9471L93.3025 13.6147C93.0994 13.8574 92.8425 14.0453 92.5322 14.1783C92.2276 14.3054 91.8777 14.369 91.4828 14.369ZM94.3694 14.3083V9.6784H95.3766V10.9529L95.2581 10.5801C95.3935 10.268 95.6051 10.031 95.8928 9.86914C96.1863 9.70729 96.5503 9.62638 96.9847 9.62638V10.6581C96.9396 10.6466 96.8973 10.6408 96.8578 10.6408C96.8182 10.635 96.7788 10.6321 96.7393 10.6321C96.3387 10.6321 96.0199 10.7535 95.7829 10.9963C95.5459 11.2332 95.4274 11.5887 95.4274 12.0627V14.3083H94.3694ZM99.0661 14.369C98.6881 14.369 98.324 14.3198 97.9742 14.2216C97.6301 14.1176 97.3564 13.9933 97.1533 13.8488L97.5596 13.0251C97.7627 13.158 98.0053 13.2679 98.2875 13.3546C98.5696 13.4413 98.8517 13.4846 99.1338 13.4846C99.4666 13.4846 99.7065 13.4384 99.8532 13.3459C100.006 13.2534 100.082 13.1291 100.082 12.9731C100.082 12.8459 100.031 12.7505 99.9294 12.687C99.8278 12.6176 99.6952 12.5656 99.5316 12.5309C99.368 12.4962 99.1846 12.4644 98.9815 12.4355C98.784 12.4066 98.5837 12.369 98.3806 12.3228C98.1831 12.2708 98.0024 12.1985 97.8389 12.1061C97.6753 12.0078 97.5427 11.8777 97.4411 11.7159C97.3396 11.554 97.2887 11.3402 97.2887 11.0743C97.2887 10.7795 97.3705 10.5252 97.5341 10.3113C97.6977 10.0917 97.9263 9.92405 98.2198 9.80845C98.5187 9.68707 98.8714 9.62638 99.2776 9.62638C99.5824 9.62638 99.8899 9.66106 100.2 9.73042C100.511 9.79979 100.767 9.89805 100.97 10.0252L100.564 10.8489C100.35 10.7159 100.133 10.6263 99.9124 10.5801C99.6981 10.5281 99.4836 10.5021 99.2692 10.5021C98.9476 10.5021 98.7078 10.5512 98.5498 10.6495C98.3974 10.7477 98.3213 10.872 98.3213 11.0223C98.3213 11.161 98.3721 11.265 98.4736 11.3344C98.5752 11.4038 98.7078 11.4587 98.8714 11.4991C99.035 11.5396 99.2157 11.5743 99.4131 11.6032C99.6162 11.6263 99.8166 11.6639 100.014 11.7159C100.212 11.7679 100.392 11.8402 100.556 11.9326C100.725 12.0193 100.86 12.1436 100.962 12.3055C101.064 12.4673 101.114 12.6783 101.114 12.9384C101.114 13.2274 101.03 13.4788 100.86 13.6927C100.697 13.9066 100.463 14.0742 100.158 14.1956C99.8532 14.3112 99.4893 14.369 99.0661 14.369ZM103.803 14.369C103.34 14.369 102.928 14.2679 102.567 14.0655C102.206 13.8574 101.921 13.5742 101.712 13.2158C101.504 12.8575 101.399 12.45 101.399 11.9933C101.399 11.5309 101.504 11.1234 101.712 10.7708C101.921 10.4125 102.206 10.1321 102.567 9.92984C102.928 9.72753 103.34 9.62638 103.803 9.62638C104.271 9.62638 104.686 9.72753 105.047 9.92984C105.414 10.1321 105.699 10.4096 105.902 10.7622C106.11 11.1148 106.215 11.5252 106.215 11.9933C106.215 12.45 106.11 12.8575 105.902 13.2158C105.699 13.5742 105.414 13.8574 105.047 14.0655C104.686 14.2679 104.271 14.369 103.803 14.369ZM103.803 13.4413C104.062 13.4413 104.294 13.3835 104.497 13.2679C104.7 13.1523 104.858 12.9846 104.971 12.765C105.089 12.5453 105.149 12.2881 105.149 11.9933C105.149 11.6928 105.089 11.4356 104.971 11.2217C104.858 11.002 104.7 10.8344 104.497 10.7188C104.294 10.6032 104.065 10.5454 103.811 10.5454C103.552 10.5454 103.32 10.6032 103.117 10.7188C102.92 10.8344 102.762 11.002 102.643 11.2217C102.525 11.4356 102.466 11.6928 102.466 11.9933C102.466 12.2881 102.525 12.5453 102.643 12.765C102.762 12.9846 102.92 13.1523 103.117 13.2679C103.32 13.3835 103.549 13.4413 103.803 13.4413ZM109.537 9.62638C109.898 9.62638 110.22 9.69863 110.502 9.84314C110.79 9.98764 111.015 10.2102 111.179 10.5107C111.343 10.8055 111.425 11.187 111.425 11.6552V14.3083H110.367V11.7939C110.367 11.3835 110.271 11.0772 110.079 10.8749C109.893 10.6726 109.63 10.5714 109.292 10.5714C109.043 10.5714 108.823 10.6234 108.631 10.7275C108.44 10.8315 108.29 10.9876 108.183 11.1957C108.081 11.398 108.031 11.6552 108.031 11.9673V14.3083H106.973V9.6784H107.98V10.9269L107.802 10.5454C107.96 10.2506 108.189 10.0252 108.488 9.86914C108.792 9.70729 109.142 9.62638 109.537 9.62638ZM115.297 14.3083V13.3719L115.238 13.1725V11.5338C115.238 11.2159 115.145 10.9703 114.959 10.7969C114.773 10.6177 114.49 10.5281 114.112 10.5281C113.858 10.5281 113.607 10.5685 113.359 10.6495C113.116 10.7304 112.911 10.8431 112.741 10.9876L112.327 10.1986C112.569 10.0079 112.857 9.86627 113.19 9.77377C113.528 9.67551 113.878 9.62638 114.239 9.62638C114.894 9.62638 115.399 9.78823 115.754 10.1119C116.115 10.4298 116.296 10.924 116.296 11.5945V14.3083H115.297ZM113.875 14.369C113.537 14.369 113.241 14.3112 112.987 14.1956C112.733 14.0742 112.535 13.9095 112.394 13.7014C112.259 13.4875 112.191 13.2476 112.191 12.9817C112.191 12.7216 112.25 12.4875 112.369 12.2795C112.493 12.0714 112.693 11.9066 112.97 11.7853C113.246 11.6639 113.613 11.6032 114.07 11.6032H115.382V12.3228H114.146C113.785 12.3228 113.543 12.3835 113.418 12.5049C113.294 12.6205 113.232 12.765 113.232 12.9384C113.232 13.1349 113.308 13.291 113.461 13.4066C113.613 13.5222 113.825 13.58 114.095 13.58C114.355 13.58 114.586 13.5193 114.789 13.3979C114.998 13.2765 115.148 13.0973 115.238 12.8604L115.416 13.5106C115.314 13.7823 115.131 13.9933 114.866 14.1435C114.606 14.2938 114.276 14.369 113.875 14.369ZM117.4 14.3083V7.875H118.458V14.3083H117.4Z" fill="white"/>
</g>
<defs>
<clipPath id="clip0_735_37150">
<rect width="125" height="22" fill="white" transform="translate(0.59375 0.71875)"/>
</clipPath>
</defs>
</svg>
