<svg width="126" height="39" viewBox="0 0 126 39" fill="none" xmlns="http://www.w3.org/2000/svg">
<path d="M87.2237 16.5795C87.0698 16.0412 86.8391 15.5414 86.5314 15.1185C86.2622 14.6955 85.916 14.311 85.4929 14.0034C85.1083 13.6958 84.6468 13.4651 84.1468 13.3113C83.6468 13.1575 83.0699 13.0806 82.493 13.0806C81.4545 13.0806 80.5315 13.3498 79.7238 13.8881C78.9161 14.4264 78.2623 15.1954 77.7623 16.195C77.3007 17.1947 77.0315 18.4636 77.0315 19.9246C77.0315 21.3857 77.2623 22.6546 77.7623 23.6542C78.2623 24.6539 78.9161 25.4614 79.7238 25.9612C80.5699 26.4995 81.493 26.7686 82.5699 26.7686C83.5699 26.7686 84.416 26.5764 85.1468 26.1535C85.8776 25.769 86.4545 25.1922 86.8775 24.4617C87.3006 23.7311 87.4929 22.8468 87.4929 21.8471L88.1852 21.9625H82.993V19.6939H90.1467V21.7702C90.1467 23.3082 89.839 24.6155 89.1852 25.7305C88.5314 26.8455 87.6468 27.7299 86.4929 28.3451C85.3391 28.9603 84.0314 29.2679 82.5699 29.2679C80.9161 29.2679 79.493 28.8834 78.2238 28.1144C76.9931 27.3454 76.0315 26.2688 75.3392 24.8846C74.6469 23.5004 74.3008 21.8471 74.3008 19.9246C74.3008 18.4636 74.4931 17.1563 74.9162 16.0028C75.3008 14.8493 75.8777 13.8496 76.6084 13.0422C77.3392 12.2347 78.1854 11.6196 79.1853 11.1966C80.1853 10.7737 81.2622 10.543 82.4545 10.543C83.4545 10.543 84.3391 10.6968 85.1853 10.9659C86.0314 11.2351 86.8006 11.658 87.4545 12.1963C88.1083 12.7346 88.6852 13.3498 89.1083 14.0803C89.5314 14.8109 89.839 15.6183 89.9929 16.5026H87.2237V16.5795Z" fill="#944251"/>
<path d="M95.6103 13.2739C95.1487 13.2739 94.7641 13.1202 94.418 12.8126C94.0718 12.505 93.918 12.1205 93.918 11.6975C93.918 11.2746 94.0718 10.8901 94.418 10.5825C94.7641 10.2749 95.1487 10.1211 95.6103 10.1211C96.0718 10.1211 96.4564 10.2749 96.8025 10.5825C97.1487 10.8901 97.3025 11.2746 97.3025 11.6975C97.3025 12.1205 97.1487 12.505 96.8025 12.8126C96.4564 13.1202 96.0718 13.2739 95.6103 13.2739ZM94.2641 28.9998V15.3502H96.9179V28.9998H94.2641Z" fill="#944251"/>
<path d="M112.147 15.3887L107.185 29.0382H104.377L99.416 15.3887H102.262L105.724 25.8854H105.877L109.339 15.3887H112.147Z" fill="#944251"/>
<path d="M120.071 29.2698C118.725 29.2698 117.571 28.9622 116.609 28.3854C115.648 27.8087 114.879 27.0013 114.379 25.9631C113.84 24.925 113.609 23.6946 113.609 22.272C113.609 20.8878 113.879 19.6574 114.379 18.5808C114.917 17.5042 115.648 16.6968 116.571 16.0816C117.532 15.4664 118.609 15.1973 119.879 15.1973C120.648 15.1973 121.379 15.3126 122.109 15.5818C122.84 15.8509 123.494 16.2354 124.071 16.7737C124.648 17.312 125.109 18.0425 125.417 18.8884C125.763 19.7728 125.917 20.8109 125.917 22.0413V22.9641H115.071V20.9647H123.302C123.302 20.2726 123.148 19.6574 122.878 19.1191C122.609 18.5808 122.186 18.1579 121.686 17.8503C121.186 17.5427 120.571 17.3889 119.879 17.3889C119.148 17.3889 118.494 17.5811 117.917 17.9272C117.379 18.2732 116.955 18.7731 116.648 19.3498C116.34 19.9266 116.186 20.5802 116.186 21.2338V22.7718C116.186 23.6946 116.34 24.4636 116.686 25.0788C116.994 25.7324 117.455 26.1938 118.032 26.5399C118.609 26.8859 119.302 27.0397 120.071 27.0397C120.571 27.0397 121.032 26.9628 121.455 26.809C121.878 26.6552 122.225 26.463 122.532 26.1554C122.84 25.8478 123.071 25.5017 123.225 25.0788L125.725 25.5402C125.532 26.2707 125.148 26.9244 124.648 27.4627C124.148 28.0009 123.494 28.4623 122.686 28.7315C121.955 29.116 121.071 29.2698 120.071 29.2698Z" fill="#944251"/>
<path d="M0.916016 12.273V10.7734H14.1466V12.273H8.37746V29.0369H6.68517V12.273H0.916016Z" fill="black"/>
<path d="M20.8003 10.7734V28.9985H19.1465V10.7734H20.8003Z" fill="black"/>
<path d="M26.916 28.9979V10.7344H37.4543V12.2339H28.5698V19.1164H36.6467V20.6159H28.5698V28.9979H26.916Z" fill="black"/>
<path d="M44.5308 10.7734V28.9985H42.877V10.7734H44.5308Z" fill="black"/>
<path d="M64.8367 10.7734V28.9985H63.2213L52.4522 13.734H52.2984V28.9985H50.6445V10.7734H52.2599L63.0674 26.0763H63.2213V10.7734H64.8367Z" fill="black"/>
</svg>
