<svg width="44" height="39" viewBox="0 0 44 39" fill="none" xmlns="http://www.w3.org/2000/svg">
<path d="M1 35.8893V2.85656C1 1.89373 1.78044 1.11328 2.74328 1.11328H40.5507C41.5135 1.11328 42.2939 1.89373 42.2939 2.85656V35.8893C42.2939 36.8521 41.5135 37.6326 40.5507 37.6326H2.74328C1.78044 37.6326 1 36.8521 1 35.8893Z" fill="#EFD074" stroke="#323537" stroke-width="2" stroke-linejoin="round"/>
<path d="M4.35657 5.75806C4.92672 5.75806 5.38892 5.29586 5.38892 4.72571C5.38892 4.15556 4.92672 3.69336 4.35657 3.69336C3.78642 3.69336 3.32422 4.15556 3.32422 4.72571C3.32422 5.29586 3.78642 5.75806 4.35657 5.75806Z" fill="#323537"/>
<path d="M7.71204 5.75806C8.28219 5.75806 8.74438 5.29586 8.74438 4.72571C8.74438 4.15556 8.28219 3.69336 7.71204 3.69336C7.14189 3.69336 6.67969 4.15556 6.67969 4.72571C6.67969 5.29586 7.14189 5.75806 7.71204 5.75806Z" fill="#323537"/>
<path d="M11.0675 5.75806C11.6377 5.75806 12.0999 5.29586 12.0999 4.72571C12.0999 4.15556 11.6377 3.69336 11.0675 3.69336C10.4974 3.69336 10.0352 4.15556 10.0352 4.72571C10.0352 5.29586 10.4974 5.75806 11.0675 5.75806Z" fill="#323537"/>
<path d="M5.77344 17.4369V11.2452C5.77344 10.2825 6.55388 9.50195 7.51672 9.50195H16.87C17.8328 9.50195 18.6132 10.2825 18.6132 11.2452V17.4369C18.6132 18.3998 17.8328 19.1802 16.87 19.1802H7.51672C6.55388 19.1802 5.77344 18.3998 5.77344 17.4369Z" fill="#F7F7F5" stroke="#9D7D1E" stroke-width="2"/>
<path d="M6.28906 9.88867L18.2256 18.7926M18.2256 9.88867L6.28906 18.7926" stroke="#9D7D1E" stroke-width="1.6"/>
<path d="M24.3555 31.2456V25.0538C24.3555 24.0911 25.1359 23.3105 26.0987 23.3105H35.452C36.4148 23.3105 37.1953 24.0911 37.1953 25.0538V31.2456C37.1953 32.2084 36.4148 32.9889 35.452 32.9889H26.0987C25.1359 32.9889 24.3555 32.2084 24.3555 31.2456Z" fill="#F7F7F5" stroke="#9D7D1E" stroke-width="1.6"/>
<path d="M24.8711 23.6973L36.8077 32.6013M36.8077 23.6973L24.8711 32.6013" stroke="#9D7D1E" stroke-width="1.6"/>
<path d="M24.3232 10.6152H36.8234M24.3232 14.4072H32.565M24.3232 18.2206H35.1459M5.91016 24.5921H18.4103M5.91016 28.3534H14.1519M5.91016 32.1669H16.7329" stroke="#323537" stroke-width="2" stroke-linecap="round"/>
</svg>
